<svg xmlns="http://www.w3.org/2000/svg" xmlns:xlink="http://www.w3.org/1999/xlink" id="Layer_1" x="0px" y="0px" width="400px" height="400px" viewBox="0 0 400 400" style="enable-background:new 0 0 400 400;" xml:space="preserve"> <style type="text/css"> .st0{fill:#E95420;} </style> <g> <path class="st0" d="M217.6,217.8c-9.8,9.8-25.6,9.8-35.4,0c-9.8-9.8-9.8-25.6,0-35.4c9.8-9.8,25.6-9.8,35.3,0 C227.4,192.2,227.4,208,217.6,217.8 M400,200c0,110.3-89.7,200-200,200S0,310.3,0,200C0,89.7,89.7,0,200,0 C310.3,0,400,89.7,400,200z M171.8,75.7h18.3V41.3h0.2l19.3,34.4h18.9v-63h-18.4v33.7h-0.2l-18.3-33.7h-19.8 C171.8,12.8,171.8,75.7,171.8,75.7z M97.7,168.8H78.6l-7.9,39.4h-0.2l-7.4-39.4H46l-7.6,38.9h-0.2l-7.7-38.9h-19l17.1,63h19 l6.6-38.4h0.2l6.8,38.4h18.9L97.7,168.8L97.7,168.8z M228.6,365.9c0-11.5-8.8-15.7-17.7-18.2c-8.9-2.5-17.9-3.4-18.3-7.9 c0-3.5,4.3-4.2,7-4.2c1.9,0,4.1,0.4,5.7,1.6c1.6,1.1,2.6,2.6,2.3,5H226c-0.5-15.4-12.6-20.5-26.3-20.5c-13,0-25.4,6.3-25.4,20.8 c0,12.7,11.4,15.4,21.3,18.3c10.8,3.1,13.6,4,13.6,7.2c0,4.7-4.9,5.7-8,5.7c-3.6,0-7.9-0.8-9.3-4.6c-0.4-1.1-0.7-2.6-0.7-4.2h-19.4 c0.2,20.1,20.5,22.7,27.7,22.7C213.5,387.6,228.6,382.3,228.6,365.9L228.6,365.9z M300.9,288.4c0-1.7-0.4-3.3-1-4.7L256,151.9 c0-0.1-0.1-0.2-0.1-0.3c-0.1-0.2-0.2-0.5-0.3-0.7c-0.1-0.3-0.2-0.5-0.4-0.8c-0.1-0.2-0.2-0.4-0.4-0.7c-0.1-0.2-0.3-0.5-0.4-0.7 c-0.1-0.2-0.3-0.4-0.4-0.6c-0.2-0.2-0.3-0.4-0.5-0.6c-0.2-0.2-0.4-0.4-0.5-0.6c-0.2-0.2-0.4-0.4-0.6-0.5c-0.2-0.2-0.4-0.3-0.6-0.5 c-0.2-0.2-0.4-0.3-0.6-0.4c-0.2-0.2-0.5-0.3-0.7-0.4c-0.2-0.1-0.4-0.3-0.6-0.4c-0.2-0.1-0.5-0.2-0.8-0.4c-0.2-0.1-0.4-0.2-0.7-0.3 c-0.1,0-0.2-0.1-0.3-0.1L115.5,99.8c-0.1,0-0.1,0-0.2-0.1c-0.4-0.1-0.8-0.2-1.2-0.3c-0.3-0.1-0.6-0.1-0.9-0.2 c-0.4,0-0.7-0.1-1.1-0.1c-0.3,0-0.7,0-1,0c-0.3,0-0.7,0.1-1,0.1c-0.3,0-0.7,0.1-1,0.1c-0.3,0.1-0.7,0.2-1,0.3 c-0.3,0.1-0.7,0.2-1,0.3c-0.3,0.1-0.6,0.3-0.9,0.4c-0.4,0.2-0.7,0.3-1,0.5c-0.1,0-0.1,0.1-0.2,0.1c-0.2,0.1-0.4,0.3-0.5,0.4 c-0.3,0.2-0.7,0.4-1,0.7c-0.2,0.2-0.5,0.4-0.7,0.7c-0.3,0.3-0.5,0.5-0.8,0.8c-0.2,0.3-0.4,0.6-0.6,0.8c-0.2,0.2-0.3,0.4-0.5,0.6 c-0.1,0.1-0.1,0.2-0.1,0.2c-0.2,0.3-0.3,0.6-0.4,0.9c-0.2,0.3-0.3,0.7-0.5,1c-0.1,0.3-0.2,0.6-0.3,0.8c-0.1,0.4-0.2,0.8-0.3,1.2 c-0.1,0.3-0.1,0.6-0.1,0.8c-0.1,0.4-0.1,0.8-0.1,1.2c0,0.3,0,0.6,0,0.8c0,0.4,0,0.8,0.1,1.2c0,0.3,0.1,0.5,0.2,0.8 c0.1,0.4,0.2,0.8,0.3,1.3c0,0.1,0,0.1,0.1,0.2l44.2,132.6c0,0.1,0.1,0.2,0.1,0.3c0.1,0.2,0.2,0.4,0.3,0.7c0.1,0.3,0.2,0.5,0.4,0.8 c0.1,0.2,0.2,0.4,0.4,0.6c0.1,0.2,0.3,0.5,0.5,0.7c0.1,0.2,0.3,0.4,0.4,0.6c0.2,0.2,0.4,0.5,0.5,0.7c0.2,0.2,0.3,0.4,0.5,0.5 c0.2,0.2,0.4,0.4,0.6,0.6c0.2,0.2,0.4,0.3,0.6,0.5c0.2,0.2,0.4,0.3,0.6,0.5c0.2,0.2,0.4,0.3,0.7,0.4c0.2,0.1,0.5,0.3,0.7,0.4 c0.2,0.1,0.5,0.2,0.7,0.3c0.2,0.1,0.5,0.2,0.7,0.3c0.1,0,0.2,0.1,0.2,0.1l132.6,44.2c0.3,0.1,0.7,0.2,1,0.2 c0.2,0.1,0.5,0.1,0.8,0.2c0.7,0.1,1.5,0.2,2.2,0.2h0.4c0.5,0,0.9,0,1.4-0.1l0,0c0.5-0.1,1.1-0.2,1.6-0.3c0,0,0.1,0,0.1,0 C297,299,300.9,294.2,300.9,288.4L300.9,288.4z M387.1,231.3v-16.1h-33.7v-7.9h29.7v-15h-29.7v-7.9h32.7v-16.1H334v63L387.1,231.3 L387.1,231.3L387.1,231.3z"></path> </g> </svg>