<svg xmlns="http://www.w3.org/2000/svg" xmlns:xlink="http://www.w3.org/1999/xlink" id="Layer_1" x="0px" y="0px" width="110px" height="110px" viewBox="0 0 110 110" style="enable-background:new 0 0 110 110;" xml:space="preserve"> <style type="text/css"> .st0{fill:#E95420;} .st1{display:none;} </style> <g id="Comp"> <g> <path class="st0" d="M70.9,78.1c-21.5,0-39.1-17.5-39.1-39.1C31.9,17.5,49.4,0,70.9,0S110,17.5,110,39.1 C110,60.6,92.5,78.1,70.9,78.1"></path> <path class="st0" d="M27.1,41.9C28,56,35.6,68.3,46.7,75.7l0,0L19.5,91.3l7.2-26.7L0,57.5L27.1,41.9 C27.1,41.9,27.1,41.9,27.1,41.9z"></path> <path class="st0" d="M51.4,78.4c5.9,2.9,12.5,4.6,19.5,4.6c7,0,13.6-1.7,19.5-4.6l0,0v31.4L70.9,90.3l-19.5,19.5L51.4,78.4 C51.4,78.4,51.4,78.4,51.4,78.4z"></path> </g> </g> <g id="Grid" class="st1"> </g> </svg>