<svg xmlns="http://www.w3.org/2000/svg" xmlns:xlink="http://www.w3.org/1999/xlink" id="Layer_1" x="0px" y="0px" width="400px" height="400px" viewBox="0 0 400 400" style="enable-background:new 0 0 400 400;" xml:space="preserve"> <style type="text/css"> .st0{fill:#E95420;} </style> <g> <g> <path class="st0" d="M216.9,118.6l14-5.8c6.4-2.6,9.4-10,6.8-16.3c-2.6-6.4-10-9.4-16.3-6.8l-14.1,5.8 c-3.4-10.6-5.6-21.7-6.6-33.1H320l-84.3,84.3C228.4,138,222.1,128.6,216.9,118.6"></path> <path class="st0" d="M337.6,199.3c-32-2.7-61.1-15.4-84.3-35L337.6,80V199.3z M395.1,244.7c-20.4,88.9-100,155.2-195,155.3 C89.6,400,0,310.4,0,199.9c0-95.1,66.3-174.6,155.1-195v0c-3.3,14.4-5.1,29.4-5.1,44.8c0,110.3,89.8,200.1,200.1,200.1 C365.6,249.8,380.7,248.1,395.1,244.7L395.1,244.7L395.1,244.7z M362.7,83.3c22,30.6,35.6,67.7,37.3,107.9l0,0 c-11.8,4.2-24.3,6.9-37.3,8L362.7,83.3L362.7,83.3L362.7,83.3z M200.7,37.3c1.1-13,3.8-25.5,8-37.3l0,0 c39.7,1.7,76.4,14.9,106.8,36.4l1.1,0.9H200.7z"></path> </g> </g> </svg>