<svg xmlns="http://www.w3.org/2000/svg" xmlns:xlink="http://www.w3.org/1999/xlink" id="Layer_1" x="0px" y="0px" width="400px" height="400px" viewBox="0 0 400 400" style="enable-background:new 0 0 400 400;" xml:space="preserve"> <style type="text/css"> .st0{fill:#E95420;} </style> <g> <path class="st0" d="M200,0C89.7,0,0,89.7,0,200c0,110.3,89.7,200,200,200c110.3,0,200-89.7,200-200C400,89.7,310.3,0,200,0L200,0z M261.2,180.4H225v100.4c0,13.8-11.2,25-25,25c-13.8,0-25-11.2-25-25V180.4h-36.2c-5.1,0-9.6-3-11.5-7.7 c-1.9-4.7-0.9-10.1,2.7-13.6l61.2-61.2c4.9-4.9,12.8-4.9,17.7,0l60.6,60.6c2.6,2.3,4.3,5.7,4.3,9.4 C273.7,174.8,268.1,180.4,261.2,180.4L261.2,180.4z"></path> </g> </svg>