<svg xmlns="http://www.w3.org/2000/svg" xmlns:xlink="http://www.w3.org/1999/xlink" id="Layer_1" x="0px" y="0px" width="400px" height="400px" viewBox="0 0 400 400" style="enable-background:new 0 0 400 400;" xml:space="preserve"> <style type="text/css"> .st0{display:none;} .st1{display:inline;fill:#FFFFFF;} .st2{fill:#E95420;} </style> <g id="BK" class="st0"> <rect x="-4600" y="-580" class="st1" width="5100" height="4060"></rect> </g> <g id="Comp"> <g id="_x36_1"> <path class="st2" d="M237.2,228.3c5.2,0,9.4,4.2,9.4,9.4c0,5.2-4.2,9.4-9.4,9.4c-5.2,0-9.4-4.2-9.4-9.4 C227.9,232.5,232.1,228.3,237.2,228.3L237.2,228.3z M289.9,200h-78.8L97.7,125l4.7-11.3l85.5,17.6l0.3-64.8l43.6,50.5L302.5,40 l10.5,6.2l-34.4,101.4l103.7-30C350.8,48.4,280.9,0.1,200,0.1C89.7,0.1,0,89.8,0,200.1c0,60.1,26.7,114.2,68.8,150.9v-38.2 c0-10.4,8.4-18.7,18.8-18.7c10.4,0,18.8,8.4,18.8,18.7v64c4.1,2.2,8.3,4.2,12.5,6.1v-70.1c0-10.4,8.4-18.7,18.7-18.7 c10.4,0,18.8,8.4,18.8,18.7v82.5c4.1,0.9,8.3,1.7,12.5,2.4v-84.9c0-10.4,8.4-18.7,18.8-18.7s18.7,8.4,18.7,18.7v87 c0,0.1,0,0.1,0,0.2c4.2-0.1,8.4-0.4,12.5-0.8V237.7c0-10.4,8.4-18.7,18.7-18.7s18.7,8.4,18.7,18.7V392 C339.3,367.6,400,290.8,400,200.1c0-23.1-3.9-45.2-11.1-65.8L289.9,200L289.9,200z"></path> </g> </g> </svg>