<svg xmlns="http://www.w3.org/2000/svg" xmlns:xlink="http://www.w3.org/1999/xlink" id="Layer_1" x="0px" y="0px" width="400px" height="400px" viewBox="0 0 400 400" style="enable-background:new 0 0 400 400;" xml:space="preserve"> <style type="text/css"> .st0{fill:#E95420;} </style> <g> <path class="st0" d="M341.5,58.6C303.7,20.8,253.4,0,200,0C146.6,0,96.3,20.8,58.5,58.6c-78,78-78,204.9,0,282.8 c37.8,37.8,88,58.6,141.5,58.6h0c53.4,0,103.7-20.8,141.5-58.6C419.5,263.4,419.5,136.6,341.5,58.6z M200,277.3 c0,3.1-1.9,5.9-4.7,7.1c-0.9,0.4-1.9,0.6-2.9,0.6c-2,0-3.9-0.8-5.4-2.2L150.5,246H77.6c-4.2,0-7.6-3.4-7.6-7.7v-76.7 c0-4.2,3.4-7.7,7.6-7.7h72.9l36.5-36.8c2.2-2.2,5.4-2.8,8.3-1.7c2.8,1.2,4.7,4,4.7,7.1L200,277.3L200,277.3L200,277.3z M232.8,235.4c19.5-19.5,19.5-51.2,0-70.7l17.7-17.7c29.3,29.3,29.3,76.9,0,106.1L232.8,235.4L232.8,235.4z M268.2,270.7 c39-39,39-102.5,0-141.5l17.7-17.7c48.8,48.8,48.8,128.1,0,176.9L268.2,270.7L268.2,270.7z M321.2,323.8l-17.7-17.7 c58.5-58.5,58.5-153.7,0-212.2l17.7-17.7C389.5,144.5,389.5,255.5,321.2,323.8L321.2,323.8z"></path> </g> </svg>