<svg xmlns="http://www.w3.org/2000/svg" xmlns:xlink="http://www.w3.org/1999/xlink" id="Layer_1" x="0px" y="0px" width="400px" height="400px" viewBox="0 0 400 400" style="enable-background:new 0 0 400 400;" xml:space="preserve"> <style type="text/css"> .st0{fill:#E95420;} </style> <g> <path class="st0" d="M200,0C89.7,0,0,89.7,0,200c0,110.3,89.7,200,200,200c35.1,0,69.7-9.3,100-26.8c7.7-4.5,12.5-12.7,12.5-21.6 c0,0,0-51.5,0-51.5h-12.6c-6.9,0-12.5-5.6-12.5-12.5c0-6.9,5.6-12.5,12.5-12.5h12.6v-50H375c13.3,0,24.3-10.5,25-23.6 c0-0.5,0-1,0-1.4C400,89.7,310.3,0,200,0L200,0z M287.3,200.5c-34.5,0-62.5-28-62.5-62.5c0-14.1,4.7-27.1,12.5-37.5H124.6 c-20.7,0-37.5,16.8-37.5,37.5c0,20.7,16.8,37.5,37.5,37.5v25c-34.5,0-62.5-28-62.5-62.5c0-34.5,28-62.5,62.5-62.5h162.7 c34.5,0,62.5,28,62.5,62.5S321.8,200.5,287.3,200.5L287.3,200.5z M287.3,100.5c-20.7,0-37.5,16.8-37.5,37.5s16.8,37.5,37.5,37.5 c20.7,0,37.5-16.8,37.5-37.5S308,100.5,287.3,100.5L287.3,100.5z M287.8,149.9c-6.9,0-12.5-5.6-12.5-12.5s5.6-12.5,12.5-12.5 c6.9,0,12.5,5.6,12.5,12.5S294.7,149.9,287.8,149.9L287.8,149.9z"></path> </g> </svg>