<svg xmlns="http://www.w3.org/2000/svg" xmlns:xlink="http://www.w3.org/1999/xlink" id="Layer_1" x="0px" y="0px" width="141.7px" height="141.7px" viewBox="0 0 141.7 141.7" style="enable-background:new 0 0 141.7 141.7;" xml:space="preserve"> <style type="text/css"> .st0{fill:#E95420;} </style> <path class="st0" d="M70.9,14.2c-31.3,0-56.7,25.4-56.7,56.7c0,31.3,25.4,56.7,56.7,56.7c31.3,0,56.7-25.4,56.7-56.7 C127.6,39.6,102.1,14.2,70.9,14.2z M94.5,85.1H74.3V67C84.4,65.3,92,56.6,92,46.1c-11.4,0-20.7,9-21.2,20.3h0 C70.3,55.1,61,46.1,49.6,46.1c0,10.5,7.6,19.2,17.7,20.9v18.1h-20c-7.8,0-14.2-6.3-14.2-14.2c0-7.5,5.9-13.7,13.3-14.1 C43.1,50.1,45.5,42,52,38.2c6.5-3.8,14.8-1.8,18.9,4.4c4.1-6.2,12.4-8.2,18.9-4.4c6.5,3.8,8.9,11.9,5.6,18.6 c7.4,0.5,13.3,6.6,13.3,14.1C108.6,78.7,102.3,85.1,94.5,85.1z"></path> </svg>