<svg xmlns="http://www.w3.org/2000/svg" xmlns:xlink="http://www.w3.org/1999/xlink" id="Layer_1" x="0px" y="0px" width="400px" height="400px" viewBox="0 0 400 400" style="enable-background:new 0 0 400 400;" xml:space="preserve"> <style type="text/css"> .st0{fill:#E95420;} </style> <g> <path class="st0" d="M120.1,281.5l30-34.4v34.4C150.1,281.5,120.1,281.5,120.1,281.5z M400,200v0.5c-0.2,13.6-11.3,24.6-25,24.6 h-62.5v41.6c0,0-25,0-25,0c-16.7,0-30.3-13.6-30.3-30.3c0-10.9-8.8-19.7-19.7-19.7s-19.7,8.8-19.7,19.7c0,38.4,31.3,71.8,69.7,71.8 h25v43.3c0,8.9-4.8,17.2-12.5,21.6c-30.3,17.5-64.9,26.8-100,26.8C89.7,400,0,310.3,0,200C0,89.7,89.7,0,200,0S400,89.7,400,200 L400,200z M106.3,72.4c0,4.5-5.1,7-8.3,8.9c-7.8,4.8-16.7,9.4-21.8,16.6c-3,4.1-4.8,9.3-4.4,15.2H125v-15H97.2V98 c11.6-7.1,26.9-12,26.9-27.7c0-13.1-10.1-19.3-25-19.3c-16.5,0-27,9.7-26,26.5h16.6c-0.2-7.5,2.2-12.6,9.3-12.6 C103,64.9,106.3,66.9,106.3,72.4L106.3,72.4z M30.6,164.6h87.2v-27H30.6L30.6,164.6L30.6,164.6z M117.8,207.1v-27H30.6v27 L117.8,207.1L117.8,207.1z M203.3,281.5h-16.6v-68.4h-35.1l-56.1,65.3v33.1h54.5v24.3h36.7v-24.3h16.6L203.3,281.5L203.3,281.5z M212.4,131.1h-18.2v33.7h-0.1c-8.6-14-14.6-32.7-33.6-32.7c-15.9,0-23.5,12.3-23.5,30.4c0,20,11.8,32.8,32.2,31.6V174 c-9.1,0.2-15.3-2.7-15.3-11.2c0-5,2.4-9,9.1-9c5.5,0,8.5,6.2,10.8,10.1c5.8,9.5,11.5,20.2,20.1,26.4c5,3.6,11.2,5.8,18.4,5.4 L212.4,131.1L212.4,131.1L212.4,131.1z M237.4,56.2h-30.5V25.7h-26.5v30.5h-30.5v26.5h30.5v30.5h26.5V82.6h30.5V56.2L237.4,56.2z M287,137.9c0-6.9-5.6-12.5-12.5-12.5S262,131,262,137.9s5.6,12.5,12.5,12.5S287,144.8,287,137.9L287,137.9z"></path> </g> </svg>