<svg xmlns="http://www.w3.org/2000/svg" xmlns:xlink="http://www.w3.org/1999/xlink" id="Layer_1" x="0px" y="0px" width="400px" height="400px" viewBox="0 0 400 400" style="enable-background:new 0 0 400 400;" xml:space="preserve"> <style type="text/css"> .st0{fill:#E95420;} </style> <g> <path class="st0" d="M319,39.3H81C31.9,75.8,0,134.2,0,200c0,110.3,89.7,200,200,200s200-89.7,200-200 C400,134.2,368.1,75.8,319,39.3z M27,200.6c-4.5-7.7-4.5-17.2,0-25c20.1-34.7,57.4-56.2,97.3-56.2c28.3,0,55.3,10.8,75.8,29.4 L200,149c20.5-18.6,47.5-29.5,75.8-29.5c13.8,0,24.9,11.2,24.9,24.9c0,13.8-11.2,24.9-24.9,24.9c-17,0-33.1,7-44.7,18.8 c11.6,11.9,27.7,18.8,44.7,18.8c13.8,0,24.9,11.2,24.9,24.9c0,13.8-11.2,24.9-24.9,24.9c-28.3,0-55.3-10.8-75.8-29.5v0 c-20.5,18.6-47.4,29.4-75.7,29.4C84.3,256.8,47,235.3,27,200.6L27,200.6z M311.6,319.5c-10,17.3-28.7,28.1-48.7,28.1 c-14.2,0-27.6-5.4-37.9-14.7l0,0c-10.2,9.3-23.7,14.8-37.9,14.8c-6.9,0-12.5-5.6-12.5-12.5c0-6.9,5.6-12.5,12.5-12.5 c8.5,0,16.5-3.5,22.3-9.4c-5.8-5.9-13.9-9.4-22.3-9.4c-6.9,0-12.5-5.6-12.5-12.5c0-6.9,5.6-12.5,12.5-12.5c14.2,0,27.7,5.4,38,14.8 l-0.1-0.1c10.2-9.3,23.7-14.7,37.9-14.7c20,0,38.6,10.8,48.7,28.1C313.8,310.9,313.8,315.6,311.6,319.5L311.6,319.5z M293.9,307.1 c0,6.9-5.6,12.5-12.5,12.5c-6.9,0-12.5-5.6-12.5-12.5c0-6.9,5.6-12.5,12.5-12.5C288.3,294.6,293.9,300.2,293.9,307.1L293.9,307.1z M112.3,175.9c0,13.8-11.2,25-25,25c-13.8,0-25-11.2-25-25c0-13.8,11.2-25,25-25C101.1,150.9,112.3,162.1,112.3,175.9L112.3,175.9z "></path> </g> </svg>