<svg xmlns="http://www.w3.org/2000/svg" xmlns:xlink="http://www.w3.org/1999/xlink" id="Layer_1" x="0px" y="0px" width="141.7px" height="141.7px" viewBox="0 0 141.7 141.7" style="enable-background:new 0 0 141.7 141.7;" xml:space="preserve"> <style type="text/css"> .st0{fill:#E95420;} </style> <path class="st0" d="M111,30.8C100.2,20.1,86,14.2,70.9,14.2c-15.1,0-29.4,5.9-40.1,16.6C20.1,41.5,14.2,55.7,14.2,70.9 c0,15.1,5.9,29.4,16.6,40.1c10.7,10.7,24.9,16.6,40.1,16.6s29.4-5.9,40.1-16.6c10.7-10.7,16.6-24.9,16.6-40.1 C127.6,55.7,121.7,41.5,111,30.8z M24.5,87.1l3.7-13.8l10.1,10.1L24.5,87.1z M40.8,80.9l-10-10l42.6-42.6l10,10L40.8,80.9z M106,90.9l-3.8-3.8l5-5l-2.5-2.5l-5,5l-2.5-2.5l7.5-7.5l-2.5-2.5l-7.5,7.5l-2.5-2.5l5-5l-2.5-2.5l-5,5l-2.5-2.5l7.5-7.5L92.2,62 l-7.5,7.5l-2.5-2.5l5-5l-2.5-2.5l-5,5L77.1,62l7.5-7.5L82.2,52l-7.5,7.5l-3.7-3.7l15-15L121,75.9L106,90.9z"></path> </svg>