<svg xmlns="http://www.w3.org/2000/svg" xmlns:xlink="http://www.w3.org/1999/xlink" id="Layer_1" x="0px" y="0px" width="400px" height="400px" viewBox="0 0 400 400" style="enable-background:new 0 0 400 400;" xml:space="preserve"> <style type="text/css"> .st0{fill:#E95420;} </style> <g> <path class="st0" d="M400,200C400,89.7,310.2,0,200,0C89.7,0,0,89.7,0,200s89.7,200,200,200H250c13.8,0,25-11.2,25-25 c0-13.8-11.2-25-25-25H200c-82.7,0-150-67.3-150-150S117.3,50,200,50c82.7,0,150,67.3,150,150l0.1,75.1c0,13.8-11.2,25-25,25 c-13.8,0-25-11.2-25-25l0,0V200c0-55.1-44.9-100-100-100c-55.1,0-100,44.9-100,100s44.9,100,100,100c18.6,0,35.9-5.1,50.9-13.9l0,0 c5.3,36.2,36.6,64,74.2,64c41.3,0,75-33.6,75-75L400,200L400,200z M200,250c-27.6,0-50-22.4-50-50c0-27.6,22.4-50,50-50 c27.6,0,50,22.4,50,50C250,227.6,227.6,250,200,250L200,250z"></path> </g> </svg>