<svg xmlns="http://www.w3.org/2000/svg" xmlns:xlink="http://www.w3.org/1999/xlink" id="Layer_1" x="0px" y="0px" width="400px" height="400px" viewBox="0 0 400 400" style="enable-background:new 0 0 400 400;" xml:space="preserve"> <style type="text/css"> .st0{fill:#E95420;} </style> <g> <path class="st0" d="M337.2,300.3h35.7C338.2,359.9,273.7,400,200,400c-73.7,0-138.2-40.1-172.9-99.6h72.7 c10.4,0,18.8-8.4,18.8-18.8s-8.4-18.7-18.8-18.7H10.2c-1.8-5.5-3.4-11-4.7-16.7h94.4c10.4,0,18.8-8.4,18.8-18.7 c0-10.4-8.4-18.7-18.8-18.7H0.2C0.1,205.8,0,202.9,0,200c0-2.7,0.1-5.3,0.2-8h99.6c10.4,0,18.8-8.4,18.8-18.8s-8.4-18.7-18.8-18.7 H5.3c1.3-5.7,2.9-11.2,4.7-16.7h89.9c10.4,0,18.8-8.4,18.8-18.8c0-10.3-8.4-18.7-18.8-18.7H26.7C61.3,40.4,126,0,200,0 c74,0,138.7,40.4,173.3,100.3h-36.1l0.2,0H168.5c-10.4,0-18.8,8.4-18.8,18.7c0,10.4,8.4,18.8,18.8,18.8h90.7 c-4.1,5.2-7.8,10.7-10.8,16.7v0h-79.8c-10.4,0-18.8,8.4-18.8,18.7c0,10.4,8.4,18.8,18.8,18.8h69c-0.2,2.7-0.3,5.5-0.3,8.3 c0,2.8,0.1,5.6,0.4,8.4h-69c-10.4,0-18.8,8.4-18.8,18.7c0,10.4,8.4,18.7,18.8,18.7h79.9v0c3.1,5.9,6.7,11.5,10.9,16.7h-90.7 c-10.4,0-18.8,8.4-18.8,18.7c0,10.4,8.4,18.8,18.8,18.8h168.9L337.2,300.3L337.2,300.3z M385.8,178.1c-7.3,7.4-19.2,7.4-26.5,0.1 c-5.9-5.9-13.7-9.1-22-9.1c-17.2,0-31.3,14-31.3,31.2c0,10.4-8.4,18.8-18.7,18.8c-10.4,0-18.8-8.4-18.8-18.8 c0-37.9,30.8-68.7,68.8-68.7c18.3,0,35.5,7.1,48.5,20C393,158.8,393.1,170.7,385.8,178.1L385.8,178.1z M299.8,200.3 c0-6.9-5.6-12.5-12.5-12.5c-6.9,0-12.5,5.6-12.5,12.5c0,6.9,5.6,12.5,12.5,12.5C294.2,212.8,299.8,207.2,299.8,200.3L299.8,200.3z M109.8,118.7c0-5.2-4.2-9.4-9.4-9.4c-5.2,0-9.4,4.2-9.4,9.4c0,5.2,4.2,9.4,9.4,9.4C105.6,128,109.8,123.8,109.8,118.7 M109.8,172.7c0-5.2-4.2-9.4-9.4-9.4c-5.2,0-9.4,4.2-9.4,9.4s4.2,9.4,9.4,9.4C105.6,182.1,109.8,177.9,109.8,172.7 M109.8,226.7 c0-5.2-4.2-9.4-9.4-9.4c-5.2,0-9.4,4.2-9.4,9.4c0,5.2,4.2,9.4,9.4,9.4C105.6,236.1,109.8,231.9,109.8,226.7 M109.8,280.8 c0-5.2-4.2-9.4-9.4-9.4c-5.2,0-9.4,4.2-9.4,9.4c0,5.2,4.2,9.4,9.4,9.4C105.6,290.2,109.8,286,109.8,280.8"></path> </g> </svg>