<svg xmlns="http://www.w3.org/2000/svg" xmlns:xlink="http://www.w3.org/1999/xlink" id="Layer_1" x="0px" y="0px" width="400px" height="400px" viewBox="0 0 400 400" style="enable-background:new 0 0 400 400;" xml:space="preserve"> <style type="text/css"> .st0{fill:#E95420;} </style> <g> <g> <path class="st0" d="M162.4,137.6c0,6.9-5.6,12.5-12.5,12.5c-6.9,0-12.5-5.6-12.5-12.5c0-6.9,5.6-12.5,12.5-12.5 C156.8,125.1,162.4,130.7,162.4,137.6"></path> <path class="st0" d="M200,0c-23.7,0-46.4,4.2-67.5,11.7c79.6,26.4,137.3,101.5,137.3,189.9c0,0.5,0,0.9,0,1.4 c-0.7,13.2-11.6,23.6-25,23.6h-62.5v48.5h-7.3c-6.9,0-12.5,5.6-12.5,12.5c0,6.9,5.6,12.5,12.5,12.5h7.3v52.9 c0,8.9-4.8,17.2-12.5,21.6c-10.4,6-21.3,11-32.5,15C157,396.4,178.1,400,200,400c110.3,0,200-89.7,200-200C400,89.7,310.3,0,200,0 z M225.1,300.2c-6.9,0-12.5-5.6-12.5-12.5c0-6.9,5.6-12.5,12.5-12.5c6.9,0,12.5,5.6,12.5,12.5C237.6,294.6,232,300.2,225.1,300.2 L225.1,300.2z M275,300.2c-6.9,0-12.5-5.6-12.5-12.5c0-6.9,5.6-12.5,12.5-12.5s12.5,5.6,12.5,12.5 C287.5,294.6,281.9,300.2,275,300.2z M325.3,300.2c-6.9,0-12.5-5.6-12.5-12.5c0-6.9,5.6-12.5,12.5-12.5c6.9,0,12.5,5.6,12.5,12.5 C337.8,294.6,332.2,300.2,325.3,300.2L325.3,300.2z M150,100c20.7,0,37.5,16.8,37.5,37.5S170.6,175,150,175 c-20.7,0-37.5-16.8-37.5-37.5S129.3,100,150,100 M87.5,137.5c0,34.5,28,62.5,62.5,62.5s62.5-28,62.5-62.5 c0-34.5-28-62.5-62.5-62.5H44c-6.3,7.9-12.1,16.2-17.1,25H100C92.1,110.5,87.5,123.5,87.5,137.5"></path> </g> </g> </svg>