<svg xmlns="http://www.w3.org/2000/svg" xmlns:xlink="http://www.w3.org/1999/xlink" id="Layer_1" x="0px" y="0px" width="141.7px" height="141.7px" viewBox="0 0 141.7 141.7" style="enable-background:new 0 0 141.7 141.7;" xml:space="preserve"> <style type="text/css"> .st0{fill:#E95420;} </style> <path class="st0" d="M70.9,14.2c-31.3,0-56.7,25.4-56.7,56.7s25.4,56.7,56.7,56.7c31.3,0,56.7-25.4,56.7-56.7S102.1,14.2,70.9,14.2z M53.1,93.9c-3.9,0-7.1-3.2-7.1-7.1s3.2-7.1,7.1-7.1s7.1,3.2,7.1,7.1S57.1,93.9,53.1,93.9z M88.5,93.9c-3.9,0-7.1-3.2-7.1-7.1 s3.2-7.1,7.1-7.1c3.9,0,7.1,3.2,7.1,7.1S92.4,93.9,88.5,93.9z M99.1,86.7c-0.1-5.8-4.8-10.5-10.6-10.5c-5.9,0-10.6,4.7-10.6,10.6 H63.8c0-5.9-4.8-10.6-10.6-10.6c-5.8,0-10.5,4.7-10.6,10.5c-8-0.9-14.1-7.6-14.1-15.8c0-8.5,6.6-15.4,15-15.9 c-3.7-7.5-1-16.7,6.3-20.9c7.3-4.2,16.6-2,21.3,5c4.6-7,13.9-9.2,21.3-5c7.3,4.2,10,13.4,6.3,20.9c8.3,0.5,15,7.4,15,15.9 C113.4,79.1,107.2,85.9,99.1,86.7z"></path> </svg>