<svg xmlns="http://www.w3.org/2000/svg" xmlns:xlink="http://www.w3.org/1999/xlink" id="Layer_1" x="0px" y="0px" width="400px" height="400px" viewBox="0 0 400 400" style="enable-background:new 0 0 400 400;" xml:space="preserve"> <style type="text/css"> .st0{fill:#E95420;} </style> <g> <path class="st0" d="M313.8,112.9h67.5C348.6,46.1,280,0,200.8,0c-26.6,0-51.9,5.2-75.1,14.6v229.2H75.5V44.1 C29.5,80.9,0,137.5,0,200.8C0,303,76.8,387.6,175.7,400V112.9h37.6v25.1h-12.4V163h50.2v-25.1h-12.6v-25.1h50.2v25.1H276V163h50.2 v-25.1h-12.5L313.8,112.9L313.8,112.9L313.8,112.9z M100.2,307.6l-25.3-43.8h50.5L100.2,307.6L100.2,307.6z"></path> </g> </svg>