<svg xmlns="http://www.w3.org/2000/svg" xmlns:xlink="http://www.w3.org/1999/xlink" id="Layer_1" x="0px" y="0px" width="400px" height="400px" viewBox="0 0 400 400" style="enable-background:new 0 0 400 400;" xml:space="preserve"> <style type="text/css"> .st0{fill:#E95420;} </style> <g> <path class="st0" d="M200,0C89.5,0,0,89.5,0,200s89.5,200,200,200c110.5,0,200-89.5,200-200S310.5,0,200,0L200,0z M333.3,280.1 c0,14.7-11.9,26.7-26.7,26.7H93.3c-14.7,0-26.7-11.9-26.7-26.7v-160c0-14.7,11.9-26.7,26.7-26.7h86.3V80.1c0-7.4,6-13.3,13.3-13.3 h13.3c7.4,0,13.3,6,13.3,13.3v13.3h87c14.7,0,26.7,11.9,26.7,26.7L333.3,280.1L333.3,280.1L333.3,280.1z M173.3,120.1 c-44.1,0-80,35.9-80,80c0,44.1,35.9,80,80,80c44.1,0,80-35.9,80-80C253.3,155.9,217.4,120.1,173.3,120.1L173.3,120.1z M173.3,226.7 c-14.7,0-26.7-12-26.7-26.7c0-14.7,12-26.7,26.7-26.7c14.7,0,26.7,12,26.7,26.7C200,214.8,188,226.7,173.3,226.7L173.3,226.7z M306.8,133.3v13.3c0,7.4-6,13.3-13.3,13.3h-13.3c-7.4,0-13.3-6-13.3-13.3v-13.3c0-7.4,6-13.3,13.3-13.3h13.3 C300.8,119.9,306.8,125.9,306.8,133.3L306.8,133.3z"></path> </g> </svg>