<svg xmlns="http://www.w3.org/2000/svg" xmlns:xlink="http://www.w3.org/1999/xlink" id="Layer_1" x="0px" y="0px" width="141.7px" height="141.7px" viewBox="0 0 141.7 141.7" style="enable-background:new 0 0 141.7 141.7;" xml:space="preserve"> <style type="text/css"> .st0{fill:#E95420;} </style> <path class="st0" d="M98.4,23.9c-5.2,0-10.1,2-13.7,5.7c-3.7,3.7-5.7,8.6-5.7,13.8c0,5.2,2,10.1,5.7,13.8c1,1,2.4,1.6,3.8,1.6 c1.4,0,2.7-0.5,3.8-1.6c2.1-2.1,2.1-5.4,0-7.5c-1.7-1.7-2.6-3.9-2.6-6.3s0.9-4.6,2.6-6.3c1.7-1.7,3.9-2.6,6.2-2.6 c2.9,0,5.3-2.4,5.3-5.3C103.7,26.3,101.3,23.9,98.4,23.9L98.4,23.9z M90.9,50.9c1.4,1.4,1.4,3.6,0,5c-1.4,1.4-3.6,1.4-5,0 c-1.4-1.4-1.4-3.6,0-5C87.3,49.6,89.5,49.6,90.9,50.9L90.9,50.9z M118.8,63.1c-0.1,0.1-0.2,0.2-0.3,0.3L84.7,97.3 c-1,1-2.4,1.6-3.8,1.6c-1.4,0-2.7-0.5-3.8-1.6c-2.1-2.1-2.1-5.4,0-7.5l18.2-18.2c-1.9-0.2-3.7-0.6-5.5-1.2l-16,16 c-1,1-2.4,1.6-3.8,1.6c-1.4,0-2.7-0.5-3.8-1.6c-2.1-2.1-2.1-5.4,0-7.5l13.8-13.8c-0.6-0.5-1.2-1-1.8-1.6c-0.6-0.6-1.1-1.1-1.6-1.7 L62.9,75.6c-1,1-2.4,1.6-3.8,1.6c-1.4,0-2.7-0.5-3.8-1.6c-2.1-2.1-2.1-5.4,0-7.5l16-16c-0.6-1.8-1-3.7-1.2-5.5L52.1,64.7 c-1,1-2.4,1.6-3.8,1.6c-1.4,0-2.7-0.5-3.8-1.6c-2.1-2.1-2.1-5.4,0-7.5l33.6-33.6c0.1-0.1,0.1-0.1,0.2-0.2l7.3-7.3 c-4.8-1.3-9.7-2-14.8-2c-15.1,0-29.4,5.9-40.1,16.6c-22.1,22.1-22.1,58.1,0,80.2c10.7,10.7,25,16.6,40.1,16.6 c15.1,0,29.4-5.9,40.1-16.6c10.7-10.7,16.6-24.9,16.6-40.1c0-5-0.7-9.9-1.9-14.6L118.8,63.1L118.8,63.1z M33.2,73.2 c2.8-2.8,7.3-2.8,10,0c2.8,2.8,2.8,7.3,0,10c-2.8,2.8-7.3,2.8-10,0C30.4,80.5,30.4,76,33.2,73.2L33.2,73.2z M48.5,108.4 c-2.8,2.8-7.3,2.8-10,0c-2.8-2.8-2.8-7.3,0-10c2.8-2.8,7.3-2.8,10,0C51.3,101.1,51.3,105.6,48.5,108.4L48.5,108.4z M71,105.9 c-2.8,2.8-7.3,2.8-10,0c-2.8-2.8-2.8-7.3,0-10c2.8-2.8,7.3-2.8,10,0C73.7,98.7,73.7,103.1,71,105.9L71,105.9z"></path> </svg>