<svg xmlns="http://www.w3.org/2000/svg" xmlns:xlink="http://www.w3.org/1999/xlink" id="Layer_1" x="0px" y="0px" width="141.7px" height="141.7px" viewBox="0 0 141.7 141.7" style="enable-background:new 0 0 141.7 141.7;" xml:space="preserve"> <style type="text/css"> .st0{fill:#E95420;} </style> <path class="st0" d="M70.9,14.2c-31.3,0-56.7,25.4-56.7,56.7c0,31.3,25.4,56.7,56.7,56.7s56.7-25.4,56.7-56.7 C127.6,39.6,102.2,14.2,70.9,14.2z M100.4,47.4c-1.8,3.7-6.4,5.3-10.1,3.5L78.4,45v47.6c0,0.3,0,0.6,0,1c0,10.6-10,18.9-22.7,18.9 c-12.7,0-22.7-8.3-22.7-18.9c0-10.6,10-18.9,22.7-18.9c2.7,0,5.2,0.4,7.5,1V32.9c0-2.6,1.3-5,3.6-6.4c2.2-1.4,5-1.5,7.3-0.4L97,37.3 C100.7,39.1,102.3,43.6,100.4,47.4z"></path> </svg>