<svg xmlns="http://www.w3.org/2000/svg" xmlns:xlink="http://www.w3.org/1999/xlink" id="Layer_1" x="0px" y="0px" width="141.7px" height="141.7px" viewBox="0 0 141.7 141.7" style="enable-background:new 0 0 141.7 141.7;" xml:space="preserve"> <style type="text/css"> .st0{fill:#E95420;} </style> <path class="st0" d="M70.9,14.2c-31.3,0-56.7,25.4-56.7,56.7c0,31.3,25.4,56.7,56.7,56.7c9.9,0,19.8-2.6,28.3-7.6 c2.2-1.3,3.5-3.6,3.5-6.1V99.2h-3.7c-2,0-3.5-1.6-3.5-3.5c0-2,1.6-3.5,3.5-3.5h3.7V78h17.7c3.7,0,6.7-2.8,7.1-6.5c0-0.2,0-0.4,0-0.6 C127.6,39.6,102.1,14.2,70.9,14.2z M93.2,72c-4.6,0-8.4-3.2-9.4-7.5c-1.8,0.9-3.7,1.4-5.8,1.4c-7,0-12.7-5.7-12.7-12.7 S71,40.5,78,40.5s12.7,5.7,12.7,12.7c0,0,0,0,0,0c0,0,0,0.1,0,0.1v9c0,1.4,1.1,2.6,2.6,2.6s2.6-1.1,2.6-2.6l0-9.2 c0-9.8-8-17.8-17.8-17.8c-9.8,0-17.8,8-17.8,17.8C60.2,63,68.2,71,78,71h6.1c2,0,3.5,1.6,3.5,3.5S86.1,78,84.1,78H78 c-13.7,0-24.9-11.2-24.9-24.9c0-13.7,11.2-24.9,24.9-24.9c13.7,0,24.9,11.2,24.9,24.9l0,9.2C102.9,67.6,98.6,72,93.2,72z M83.6,53.2 c0,3.1-2.5,5.6-5.6,5.6s-5.6-2.5-5.6-5.6c0-3.1,2.5-5.6,5.6-5.6S83.6,50.1,83.6,53.2z"></path> </svg>