<svg xmlns="http://www.w3.org/2000/svg" xmlns:xlink="http://www.w3.org/1999/xlink" id="Layer_1" x="0px" y="0px" width="400px" height="400px" viewBox="0 0 400 400" style="enable-background:new 0 0 400 400;" xml:space="preserve"> <style type="text/css"> .st0{fill:#E95420;} </style> <g> <path class="st0" d="M102.2,187.1c0,4.5-3.7,8.2-8.2,8.2c-4.5,0-8.2-3.7-8.2-8.2s3.7-8.2,8.2-8.2 C98.6,178.9,102.2,182.5,102.2,187.1z M117.7,178.9c-4.5,0-8.2,3.7-8.2,8.2s3.7,8.2,8.2,8.2c4.5,0,8.2-3.7,8.2-8.2 S122.2,178.9,117.7,178.9z M400,200c0,110.5-89.5,200-200,200S0,310.5,0,200S89.5,0,200,0S400,89.5,400,200z M122,152.6H278V50 h-12.3v8.2h4.1v8.2h-16.4v-8.2h4.1V50H241v8.2h4.1v8.2h-16.4v-8.2h4.1V50h-16.4v8.2h4.1v8.2h-16.4v-8.2h4.1V50h-16.4v8.2h4.1v8.2 h-16.4v-8.2h4.1V50h-16.4v8.2h4.1v8.2h-16.4v-8.2h4.1V50h-16.4v8.2h4.1v8.2h-16.4v-8.2h4.1V50h-12.3L122,152.6L122,152.6z M265.9,277.2H134.6V310h131.3V277.2z M331.3,178.7c0-9.1-7.4-16.4-16.4-16.4H85.1c-9.1,0-16.4,7.3-16.4,16.4v114.9 c0,9.1,7.3,16.4,16.4,16.4h33.1v-41c0-4.5,3.7-8.2,8.2-8.2h147.7c4.5,0,8.2,3.7,8.2,8.2v41h32.6c9.1,0,16.4-7.4,16.4-16.4 L331.3,178.7L331.3,178.7z"></path> </g> </svg>