<svg xmlns="http://www.w3.org/2000/svg" xmlns:xlink="http://www.w3.org/1999/xlink" id="Layer_1" x="0px" y="0px" width="400px" height="400px" viewBox="0 0 400 400" style="enable-background:new 0 0 400 400;" xml:space="preserve"> <style type="text/css"> .st0{fill:#E95420;} </style> <g> <path class="st0" d="M182.5,220.9c4.9,4.9,11.3,7.3,17.7,7.3c6.4,0,12.8-2.4,17.7-7.3l44.7-44.7v86.2h-125V176L182.5,220.9 L182.5,220.9z M300.1,26.8c-7.7-4.5-17.3-4.5-25,0c-7.7,4.5-12.5,12.7-12.5,21.7v75.7l-44.7-44.7c-9.8-9.8-25.6-9.8-35.4,0l-45,45 V48.4c0-8.9-4.8-17.2-12.5-21.7c-7.7-4.5-17.3-4.5-25,0C38.3,62.5,0,128.8,0,200c0,110.3,89.7,200,200,200s200-89.7,200-200 C400,128.9,361.7,62.6,300.1,26.8"></path> </g> </svg>