<svg xmlns="http://www.w3.org/2000/svg" xmlns:xlink="http://www.w3.org/1999/xlink" id="Layer_1" x="0px" y="0px" width="141.7px" height="141.7px" viewBox="0 0 141.7 141.7" style="enable-background:new 0 0 141.7 141.7;" xml:space="preserve"> <style type="text/css"> .st0{fill:#E95420;} </style> <path class="st0" d="M70.9,14.2c-31.3,0-56.7,25.4-56.7,56.7s25.4,56.7,56.7,56.7s56.7-25.4,56.7-56.7 C127.6,39.6,102.1,14.2,70.9,14.2z M97.4,86.8H44.3c-8.8,0-15.9-7.1-15.9-15.9c0-8.5,6.6-15.4,15-15.9c-3.7-7.5-1-16.7,6.3-20.9 c7.3-4.2,16.6-2,21.3,5c4.6-7,13.9-9.2,21.3-5c7.3,4.2,10,13.4,6.3,20.9c8.3,0.5,15,7.4,15,15.9C113.4,79.6,106.2,86.8,97.4,86.8z M53.2,64.1c0,2-1.6,3.5-3.5,3.5s-3.5-1.6-3.5-3.5s1.6-3.5,3.5-3.5C51.6,60.6,53.2,62.1,53.2,64.1z M63.8,64.1c0,2-1.6,3.5-3.5,3.5 s-3.5-1.6-3.5-3.5s1.6-3.5,3.5-3.5S63.8,62.1,63.8,64.1z M74.4,64.1c0,2-1.6,3.5-3.5,3.5s-3.5-1.6-3.5-3.5s1.6-3.5,3.5-3.5 S74.4,62.1,74.4,64.1z M85,64.1c0,2-1.6,3.5-3.5,3.5c-2,0-3.5-1.6-3.5-3.5s1.6-3.5,3.5-3.5C83.5,60.6,85,62.1,85,64.1z M95.7,64.1 c0,2-1.6,3.5-3.5,3.5c-2,0-3.5-1.6-3.5-3.5s1.6-3.5,3.5-3.5C94.1,60.6,95.7,62.1,95.7,64.1z M53.2,74.7c0,2-1.6,3.5-3.5,3.5 s-3.5-1.6-3.5-3.5c0-2,1.6-3.5,3.5-3.5C51.6,71.2,53.2,72.8,53.2,74.7z M60.2,78.3c-2,0-3.5-1.6-3.5-3.5c0-2,1.6-3.5,3.5-3.5h21.3 c2,0,3.5,1.6,3.5,3.5c0,2-1.6,3.5-3.5,3.5H60.2z M95.7,74.7c0,2-1.6,3.5-3.5,3.5c-2,0-3.5-1.6-3.5-3.5c0-2,1.6-3.5,3.5-3.5 C94.1,71.2,95.7,72.8,95.7,74.7z"></path> </svg>