<svg xmlns="http://www.w3.org/2000/svg" xmlns:xlink="http://www.w3.org/1999/xlink" id="Layer_1" x="0px" y="0px" width="141.7px" height="141.7px" viewBox="0 0 141.7 141.7" style="enable-background:new 0 0 141.7 141.7;" xml:space="preserve"> <style type="text/css"> .st0{fill:#E95420;} </style> <path class="st0" d="M106.6,96c0,9.8-8,17.8-17.8,17.8c-9.8,0-17.8-8-17.8-17.8c0-9.2,7-16.8,16-17.7v-5.2c0-0.7,0.4-1.4,1.1-1.6 c0.7-0.3,1.4-0.1,1.9,0.4l8.7,8.7c0.7,0.7,0.7,1.8,0,2.5l-8.7,8.7c-0.3,0.3-0.8,0.5-1.3,0.5c-0.2,0-0.5,0-0.7-0.1 c-0.7-0.3-1.1-0.9-1.1-1.6v-5c-5,0.9-8.9,5.2-8.9,10.5c0,5.9,4.8,10.7,10.7,10.7s10.7-4.8,10.7-10.7c0-2,1.6-3.6,3.6-3.6 C105,92.5,106.6,94.1,106.6,96z M103,46.2h19.1C112.8,27.3,93.4,14.3,71,14.3c-7.5,0-14.7,1.5-21.3,4.1v64.9H35.5V26.8 c-13,10.4-21.4,26.4-21.4,44.3c0,28.9,21.7,52.9,49.7,56.4V46.2h10.6v7.1H71v7.1h14.2v-7.1h-3.6v-7.1h14.2v7.1h-3.6v7.1h14.2v-7.1 H103L103,46.2L103,46.2z M42.5,101.3l-7.2-12.4h14.3L42.5,101.3z"></path> </svg>