<svg xmlns="http://www.w3.org/2000/svg" xmlns:xlink="http://www.w3.org/1999/xlink" id="Layer_1" x="0px" y="0px" width="400px" height="400px" viewBox="0 0 400 400" style="enable-background:new 0 0 400 400;" xml:space="preserve"> <style type="text/css"> .st0{fill:#E95420;} </style> <g> <path class="st0" d="M200,400C89.7,400,0,310.3,0,200C0,89.7,89.7,0,200,0s200,89.7,200,200C400,310.3,310.3,400,200,400z M200,100 c-55.1,0-100,44.9-100,100c0,55.1,44.9,100,100,100c55.1,0,100-44.9,100-100C300,144.9,255.1,100,200,100L200,100z M168.2,219 c10.4,17.9,33.3,24.1,51.2,13.7c17.9-10.3,24.1-33.3,13.7-51.2c-10.4-17.9-33.3-24.1-51.2-13.7C164,178.1,157.8,201,168.2,219 L168.2,219z"></path> </g> </svg>