<svg xmlns="http://www.w3.org/2000/svg" xmlns:xlink="http://www.w3.org/1999/xlink" id="Layer_1" x="0px" y="0px" width="283.5px" height="283.5px" viewBox="0 0 283.5 283.5" style="enable-background:new 0 0 283.5 283.5;" xml:space="preserve"> <style type="text/css"> .st0{fill:#E95420;} </style> <path class="st0" d="M141.7,85C110.4,85,85,110.4,85,141.7c0,31.3,25.4,56.7,56.7,56.7s56.7-25.4,56.7-56.7 C198.4,110.4,173,85,141.7,85z M167.2,176.5c0,2.6-2.1,4.6-4.6,4.6h-41.7c-2.6,0-4.6-2.1-4.6-4.6v-69.6c0-2.6,2.1-4.6,4.6-4.6h41.7 c2.6,0,4.6,2.1,4.6,4.6V176.5z M141.7,178.6c-2.3,0-4.3-1.9-4.3-4.2c0-2.3,1.9-4.2,4.3-4.2s4.3,1.9,4.3,4.2 C146,176.7,144.1,178.6,141.7,178.6z M162.6,112.1v53.3c0,1.3-1,2.3-2.3,2.3h-37.1c-1.3,0-2.3-1-2.3-2.3v-53.3c0-1.3,1-2.3,2.3-2.3 h37.1C161.6,109.8,162.6,110.8,162.6,112.1z M146,107h-8.5c-0.4,0-0.7-0.3-0.7-0.7c0-0.4,0.3-0.7,0.7-0.7h8.5c0.4,0,0.7,0.3,0.7,0.7 C146.7,106.7,146.4,107,146,107z"></path> </svg>