<svg xmlns="http://www.w3.org/2000/svg" xmlns:xlink="http://www.w3.org/1999/xlink" id="Layer_1" x="0px" y="0px" width="141.7px" height="141.7px" viewBox="0 0 141.7 141.7" style="enable-background:new 0 0 141.7 141.7;" xml:space="preserve"> <style type="text/css"> .st0{fill:#E95420;} </style> <path class="st0" d="M81.5,67.3H60.2c0-5.9,4.8-10.6,10.6-10.6C76.7,56.7,81.5,61.5,81.5,67.3z M127.6,70.9 c0-31.3-25.4-56.7-56.7-56.7c-31.3,0-56.7,25.4-56.7,56.7c0,16.2,6.8,30.8,17.7,41.1V70.9c0-2,1.6-3.5,3.5-3.5H39v-3.4h7.1v3.4h7.1 c0-9.8,8-17.7,17.7-17.7s17.7,7.9,17.7,17.7h7.1v-3.4h7.1v3.4h3.5c2,0,3.5,1.6,3.5,3.5V112C120.7,101.7,127.6,87,127.6,70.9z"></path> </svg>