<svg xmlns="http://www.w3.org/2000/svg" xmlns:xlink="http://www.w3.org/1999/xlink" id="Layer_1" x="0px" y="0px" width="141.7px" height="141.7px" viewBox="0 0 141.7 141.7" style="enable-background:new 0 0 141.7 141.7;" xml:space="preserve"> <style type="text/css"> .st0{fill:#E95420;} </style> <path class="st0" d="M111,30.8C100.2,20.1,86,14.2,70.9,14.2c-15.1,0-29.4,5.9-40.1,16.6C20.1,41.5,14.2,55.7,14.2,70.9 c0,15.1,5.9,29.4,16.6,40.1c10.7,10.7,24.9,16.6,40.1,16.6s29.4-5.9,40.1-16.6c10.7-10.7,16.6-24.9,16.6-40.1 C127.6,55.7,121.7,41.5,111,30.8z M67.3,105.5c-8.3-8.3-21.8-8.3-30.1,0V73.6c8.3-8.3,21.8-8.3,30.1,0V105.5z M67.3,66.5 c-8.3-8.3-21.8-8.3-30.1,0V34.6c8.3-8.3,21.8-8.3,30.1,0V66.5z M104.5,109c-8.3,8.3-21.8,8.3-30.1,0V77.1c8.3,8.3,21.8,8.3,30.1,0 V109z M104.5,70c-8.3,8.3-21.8,8.3-30.1,0V38.1c8.3,8.3,21.8,8.3,30.1,0V70z"></path> </svg>