<svg xmlns="http://www.w3.org/2000/svg" xmlns:xlink="http://www.w3.org/1999/xlink" id="Layer_1" x="0px" y="0px" width="400px" height="400px" viewBox="0 0 400 400" style="enable-background:new 0 0 400 400;" xml:space="preserve"> <style type="text/css"> .st0{fill:#E95420;} </style> <g> <path class="st0" d="M341.7,195c-3.3,0-6.5-1.3-8.8-3.7L226.8,85.3L94,218c-3.7,3.7-8.5,5.5-13.3,5.5c-4.8,0-9.6-1.8-13.3-5.5 c-7.3-7.3-7.3-19.2,0-26.5L208.9,50.1c0.1-0.1,0.1-0.1,0.2-0.2l43-43C235.3,2.4,217.8,0,199.9,0C146.5,0,96.3,20.8,58.5,58.6 c-78,78-78,204.9,0,282.8c37.8,37.8,88,58.6,141.5,58.6c53.4,0,103.7-20.8,141.4-58.6c37.8-37.8,58.6-88,58.6-141.4 c0-17.7-2.3-35-6.7-51.6l-42.7,42.9C348.2,193.7,345.1,195,341.7,195L341.7,195z M172.5,208.4c-4.8,0-9.6-1.8-13.3-5.5 c-7.3-7.3-7.3-19.2,0-26.5l53-53c7.3-7.3,19.2-7.3,26.5,0c7.3,7.3,7.3,19.2,0,26.5l-53,53C182.1,206.6,177.3,208.4,172.5,208.4 L172.5,208.4z M210.8,246.7c-4.8,0-9.6-1.8-13.3-5.5c-7.3-7.3-7.3-19.2,0-26.5l53-53c7.3-7.3,19.2-7.3,26.5,0 c7.3,7.3,7.3,19.2,0,26.5l-53,53C220.4,244.9,215.6,246.7,210.8,246.7L210.8,246.7z M315.4,226.5l-53,53c-3.7,3.7-8.5,5.5-13.3,5.5 s-9.6-1.8-13.3-5.5c-7.3-7.3-7.3-19.2,0-26.5l53-53c7.3-7.3,19.2-7.3,26.5,0C322.8,207.3,322.8,219.2,315.4,226.5L315.4,226.5z"></path> </g> </svg>