<svg xmlns="http://www.w3.org/2000/svg" xmlns:xlink="http://www.w3.org/1999/xlink" id="Layer_1" x="0px" y="0px" width="141.7px" height="141.7px" viewBox="0 0 141.7 141.7" style="enable-background:new 0 0 141.7 141.7;" xml:space="preserve"> <style type="text/css"> .st0{fill:#E95420;} </style> <path class="st0" d="M28.4,85v23.3C19.2,98,14.2,84.8,14.2,70.9c0-15.1,5.9-29.4,16.6-40.1s24.9-16.6,40.1-16.6 c14.7,0,28.4,5.5,39,15.6V78c0,3.3-1.3,6.4-3.6,8.8c-2.3,2.3-5.5,3.6-8.8,3.6c-6.8,0-12.4-5.6-12.4-12.4V46.1c0-5.2-2-10.1-5.7-13.8 s-8.6-5.7-13.8-5.7c-10.7,0-19.5,8.7-19.5,19.5v18C36,65.8,28.4,74.5,28.4,85z M127.6,70.9c0-12-3.7-23.4-10.6-33V78 c0,5.2-2,10.1-5.7,13.8c-3.7,3.7-8.6,5.7-13.8,5.7C86.7,97.4,78,88.7,78,78V46.1c0-3.3-1.3-6.4-3.6-8.8c-2.3-2.3-5.5-3.6-8.8-3.6 c-6.8,0-12.4,5.6-12.4,12.4v18c10,1.7,17.7,10.4,17.7,21v42.5c15.1,0,29.4-5.9,40.1-16.6C121.7,100.2,127.6,86,127.6,70.9z M49.6,95.6c7.8,0,14.2-6.4,14.2-14.2h-7.1c0,3.9-3.2,7.1-7.1,7.1s-7.1-3.2-7.1-7.1h-7.1C35.4,89.2,41.8,95.6,49.6,95.6L49.6,95.6z"></path> </svg>