<svg xmlns="http://www.w3.org/2000/svg" xmlns:xlink="http://www.w3.org/1999/xlink" id="Layer_1" x="0px" y="0px" width="141.7px" height="141.7px" viewBox="0 0 141.7 141.7" style="enable-background:new 0 0 141.7 141.7;" xml:space="preserve"> <style type="text/css"> .st0{fill:#E95420;} </style> <path class="st0" d="M70.9,14.2c-31.3,0-56.7,25.4-56.7,56.7s25.4,56.7,56.7,56.7c31.3,0,56.7-25.4,56.7-56.7S102.1,14.2,70.9,14.2z M70.9,95.7c-13.7,0-24.8-11.1-24.8-24.8c0-13.7,11.1-24.8,24.8-24.8c13.7,0,24.8,11.1,24.8,24.8C95.7,84.5,84.5,95.7,70.9,95.7z M70.9,53.1c-9.8,0-17.7,7.9-17.7,17.7c0,9.8,7.9,17.7,17.7,17.7s17.7-7.9,17.7-17.7C88.6,61.1,80.6,53.1,70.9,53.1z M70.9,81.5 c-5.9,0-10.6-4.8-10.6-10.6S65,60.2,70.9,60.2c5.9,0,10.6,4.8,10.6,10.6C81.5,76.7,76.7,81.5,70.9,81.5z"></path> </svg>