<?xml version="1.0" encoding="utf-8"?>
<!-- Generator: Adobe Illustrator 15.1.0, SVG Export Plug-In . SVG Version: 6.00 Build 0)  -->
<!DOCTYPE svg PUBLIC "-//W3C//DTD SVG 1.1//EN" "http://www.w3.org/Graphics/SVG/1.1/DTD/svg11.dtd">
<svg version="1.1" id="Layer_1" xmlns="http://www.w3.org/2000/svg" xmlns:xlink="http://www.w3.org/1999/xlink" x="0px" y="0px"
	 width="1190.551px" height="841.891px" viewBox="0 0 1190.551 841.891" enable-background="new 0 0 1190.551 841.891"
	 xml:space="preserve">
<g>
	<g>
		<path fill="#DD4814" d="M213.165,223.021c-103.148,0-187.064,83.925-187.064,187.057c0,103.15,83.916,187.071,187.064,187.071
			c103.154,0,187.061-83.922,187.061-187.071C400.225,306.946,316.32,223.021,213.165,223.021z"/>
	</g>
	<g>
		<path fill="#FFFFFF" d="M291.644,319.872h-78.48h-78.485c-13.546,0-20.242,4.846-20.242,10.771v5.396
			c0,6.595,6.696,10.771,20.242,10.771h78.485h78.48c13.549,0,20.242-4.176,20.242-10.771v-5.396
			C311.886,324.718,305.193,319.872,291.644,319.872z"/>
		<path fill="#FFFFFF" d="M291.644,371.037h-78.48h-78.485c-13.546,0-20.242,4.844-20.242,10.771v5.396
			c0,6.597,6.696,10.772,20.242,10.772h78.485h78.48c13.549,0,20.242-4.177,20.242-10.772v-5.396
			C311.886,375.881,305.193,371.037,291.644,371.037z"/>
		<path fill="#FFFFFF" d="M291.644,422.195h-78.48h-78.485c-13.546,0-20.242,4.849-20.242,10.772v5.396
			c0,6.595,6.696,10.771,20.242,10.771h78.485h78.48c13.549,0,20.242-4.176,20.242-10.771v-5.396
			C311.886,427.044,305.193,422.195,291.644,422.195z"/>
		<path fill="#FFFFFF" d="M291.644,473.36h-78.48h-78.485c-13.546,0-20.242,4.847-20.242,10.771v5.396
			c0,6.595,6.696,10.771,20.242,10.771h78.485h78.48c13.549,0,20.242-4.176,20.242-10.771v-5.396
			C311.886,478.207,305.193,473.36,291.644,473.36z"/>
	</g>
</g>
<g>
	<path fill="#FFFFFF" d="M555.036,473.634c-1.689-4.051-3.932-9.207-6.706-15.433c-2.781-6.271-5.786-12.997-8.987-20.281
		c-3.222-7.239-6.62-14.704-10.271-22.381c-3.639-7.708-7.043-14.986-10.262-21.82c-3.201-6.845-6.191-12.909-8.979-18.335
		c-2.783-5.397-5.029-9.572-6.726-12.448c-1.848,19.969-3.375,41.535-4.543,64.743c-1.188,23.195-2.199,46.643-3.043,70.272h-24.067
		c0.688-15.182,1.438-30.514,2.286-45.922c0.854-15.514,1.806-30.686,2.922-45.63c1.083-14.91,2.265-29.518,3.543-43.695
		c1.251-14.185,2.643-27.634,4.163-40.26h21.534c4.567,7.392,9.456,16.169,14.676,26.315c5.243,10.143,10.492,20.753,15.714,31.827
		c5.229,11.011,10.31,22.092,15.197,33.169c4.896,11.074,9.379,21.112,13.42,30.271c4.068-9.157,8.531-19.195,13.435-30.271
		c4.887-11.077,9.972-22.158,15.202-33.169c5.228-11.074,10.458-21.686,15.694-31.827c5.209-10.146,10.125-18.925,14.681-26.315
		h21.52c5.781,56.56,10.082,115.04,12.949,175.507h-24.076c-0.814-23.631-1.867-47.077-3.062-70.272
		c-1.188-23.208-2.66-44.774-4.533-64.743c-1.672,2.876-3.927,7.051-6.687,12.448c-2.801,5.426-5.836,11.49-9,18.335
		c-3.233,6.834-6.629,14.112-10.293,21.82c-3.617,7.677-7.031,15.142-10.234,22.381c-3.223,7.284-6.215,14.012-8.99,20.281
		c-2.807,6.226-5.031,11.382-6.723,15.433H555.036L555.036,473.634z"/>
	<path fill="#FFFFFF" d="M817.187,497.951c-2.854-7.582-5.523-15.089-8.064-22.426c-2.561-7.336-5.17-14.798-7.85-22.381H721.75
		l-15.986,44.807h-25.576c6.783-18.596,13.105-35.728,18.973-51.533c5.92-15.812,11.729-30.769,17.402-44.958
		c5.666-14.192,11.225-27.722,16.84-40.648c5.592-12.893,11.375-25.74,17.467-38.366h22.521
		c6.102,12.626,11.959,25.475,17.498,38.366c5.598,12.928,11.166,26.456,16.817,40.648c5.669,14.189,11.48,29.146,17.392,44.958
		c5.908,15.807,12.203,32.938,18.979,51.533H817.187z M794.172,432.883c-5.41-14.679-10.804-28.926-16.082-42.716
		c-5.31-13.754-10.851-26.97-16.562-39.611c-5.928,12.643-11.557,25.857-16.842,39.611c-5.357,13.79-10.617,28.037-15.852,42.716
		H794.172z"/>
	<path fill="#FFFFFF" d="M995.924,497.951c-2.869-7.582-5.604-15.089-8.09-22.426c-2.554-7.336-5.181-14.798-7.904-22.381h-79.521
		l-15.91,44.807h-25.586c6.711-18.596,13.082-35.728,18.972-51.533c5.928-15.812,11.659-30.769,17.332-44.958
		c5.662-14.192,11.284-27.722,16.832-40.648c5.608-12.893,11.453-25.74,17.489-38.366h22.564
		c6.051,12.626,11.895,25.475,17.465,38.366c5.582,12.928,11.195,26.456,16.877,40.648c5.623,14.189,11.402,29.146,17.312,44.958
		c5.91,15.807,12.256,32.938,18.977,51.533H995.924z M972.827,432.883c-5.354-14.679-10.717-28.926-16.086-42.716
		c-5.28-13.754-10.786-26.97-16.569-39.611c-5.916,12.643-11.506,25.857-16.832,39.611c-5.281,13.79-10.617,28.037-15.849,42.716
		H972.827z"/>
	<path fill="#FFFFFF" d="M1093.683,480.483c25.717,0,38.543-8.781,38.543-26.318c0-5.412-1.158-10.053-3.416-13.844
		c-2.297-3.806-5.353-7.103-9.244-9.852c-3.897-2.792-8.33-5.208-13.281-7.232c-5.026-2.018-10.289-4.042-15.862-6.086
		c-6.425-2.185-12.453-4.66-18.25-7.452c-5.716-2.801-10.693-6.093-14.927-9.893c-4.241-3.789-7.567-8.294-9.979-13.511
		c-2.455-5.237-3.705-11.585-3.705-19.062c0-15.329,5.256-27.302,15.727-35.948c10.47-8.586,24.884-12.879,43.318-12.879
		c10.627,0,20.295,1.159,28.998,3.392c8.662,2.297,15.045,4.742,19.092,7.489l-7.836,19.968c-3.547-2.182-8.828-4.312-15.854-6.424
		c-6.978-2.132-15.142-3.169-24.4-3.169c-4.736,0-9.156,0.505-13.201,1.512c-4.043,1.001-7.586,2.556-10.627,4.522
		c-3.039,2.064-5.457,4.641-7.193,7.753c-1.815,3.107-2.709,6.834-2.709,11.05c0,4.745,0.927,8.648,2.812,11.88
		c1.854,3.233,4.463,6.054,7.873,8.492c3.355,2.431,7.273,4.724,11.742,6.688c4.479,2.061,9.426,4.062,14.846,6.105
		c7.586,3.039,14.555,6.095,20.857,9.066c6.366,3.065,11.83,6.726,16.494,10.955c4.641,4.184,8.221,9.241,10.737,15.032
		c2.547,5.857,3.816,12.924,3.816,21.203c0,15.319-5.596,27.155-16.844,35.426c-11.228,8.275-27.041,12.411-47.527,12.411
		c-6.883,0-13.26-0.472-19.063-1.403c-5.828-0.94-11.037-2.018-15.587-3.305c-4.571-1.244-8.483-2.601-11.768-4.033
		c-3.297-1.438-5.883-2.65-7.76-3.67l7.35-20.248c3.914,2.161,9.834,4.645,17.721,7.326
		C1072.552,479.118,1082.26,480.483,1093.683,480.483"/>
</g>
</svg>
