<svg xmlns="http://www.w3.org/2000/svg" xmlns:xlink="http://www.w3.org/1999/xlink" id="Layer_1" x="0px" y="0px" width="400px" height="400px" viewBox="0 0 400 400" style="enable-background:new 0 0 400 400;" xml:space="preserve"> <style type="text/css"> .st0{fill:#E95420;} </style> <g> <path class="st0" d="M301.2,27.6L301.2,27.6L213.9,200c-2.6,5.2-7.8,8.3-13.4,8.3l0,0c-5.6,0-10.8-3.1-13.4-8.3L100.4,26.6l0,0 C40.4,61.2,0,126,0,200c0,110.3,89.7,200,200,200s200-89.7,200-200C400,126.6,360.3,62.4,301.2,27.6L301.2,27.6z M149.9,301.3 c-6.9,0-12.5-5.6-12.5-12.5c0-6.9,5.6-12.5,12.5-12.5c6.9,0,12.5,5.6,12.5,12.5C162.4,295.7,156.8,301.3,149.9,301.3z M149.9,250.5 c-6.9,0-12.5-5.6-12.5-12.5c0-6.9,5.6-12.5,12.5-12.5c6.9,0,12.5,5.6,12.5,12.5C162.4,244.9,156.8,250.5,149.9,250.5z M341,200 h-35.4l-35.8-0.1c-2,0-3.9-1.1-4.9-2.8c-1.1-1.7-1.2-3.9-0.3-5.7l35.8-71.1c1-2,3-3.2,5.2-3.2c2.2,0,4.2,1.2,5.2,3.2l35.4,71.2 c0.9,1.8,0.8,3.9-0.2,5.7C344.9,199,343,200,341,200L341,200z M248.4,5.9l-18.6,35.8v0L252,87.8v-0.3l-42.1,82.1 c-1.8,3.6-5.4,5.8-9.3,5.8h0c-3.9,0-7.5-2.2-9.3-5.8l-41.4-81.9V88l22.3-45.5l-19-36.9v0C168.2,1.9,183.9,0,200,0 C216.7,0,232.9,2.1,248.4,5.9"></path> </g> </svg>