<svg xmlns="http://www.w3.org/2000/svg" xmlns:xlink="http://www.w3.org/1999/xlink" id="Layer_1" x="0px" y="0px" width="400px" height="400px" viewBox="0 0 400 400" style="enable-background:new 0 0 400 400;" xml:space="preserve"> <style type="text/css"> .st0{fill:#E95420;} </style> <g> <path class="st0" d="M235.4,164.5c9.4,9.4,14.6,22,14.6,35.4s-5.2,25.9-14.6,35.4s-22,14.6-35.3,14.6c-13.4,0-25.9-5.2-35.4-14.6 c-9.4-9.4-14.6-22-14.6-35.4c0-13.4,5.2-25.9,14.6-35.4c9.4-9.4,22-14.6,35.4-14.6C213.4,149.9,225.9,155.1,235.4,164.5 L235.4,164.5z M341.4,341.4c-78.1,78.1-204.7,78.1-282.8,0c-78.1-78.1-78.1-204.7,0-282.8c78.1-78.1,204.7-78.1,282.8,0 C419.5,136.7,419.5,263.3,341.4,341.4L341.4,341.4z M349.9,224.6v-50h-53.1c-2.4-9.1-6-17.7-10.8-25.8l37.6-37.6l-35.4-35.3 l-37.7,37.7c-8-4.7-16.6-8.3-25.7-10.6V49.6h-50v53.5c-9,2.3-17.6,5.9-25.6,10.6l-37.8-37.8l-35.4,35.4l37.8,37.8 c-4.8,8-8.3,16.6-10.7,25.6H49.9v50h53.2c2.3,9.1,5.9,17.8,10.6,25.8L76.1,288l35.4,35.4l37.4-37.4c8.1,4.8,16.8,8.5,25.9,10.8 v52.9h50v-52.8c9.2-2.3,17.9-6,26-10.8l37.3,37.3l35.4-35.4l-37.4-37.4c4.8-8.1,8.4-16.9,10.7-26L349.9,224.6L349.9,224.6 L349.9,224.6z"></path> </g> </svg>