<svg xmlns="http://www.w3.org/2000/svg" xmlns:xlink="http://www.w3.org/1999/xlink" id="Layer_1" x="0px" y="0px" width="400px" height="400px" viewBox="0 0 400 400" style="enable-background:new 0 0 400 400;" xml:space="preserve"> <style type="text/css"> .st0{fill:#E95420;} </style> <g> <g> <path class="st0" d="M109.8,198.1c0,6.9-5.6,12.5-12.5,12.5c-6.9,0-12.5-5.6-12.5-12.5s5.6-12.5,12.5-12.5 C104.2,185.6,109.8,191.2,109.8,198.1"></path> <path class="st0" d="M87.6,34.5v65.8v0c-28.6,5.7-50.2,31-50.2,61.3l-0.1,75.8c0,34.5,28,62.5,62.5,62.5s62.5-28,62.5-62.5 l0.1-75.8c0-30.2-21.4-55.4-49.8-61.2v0V20.1h-0.1C138.9,7.2,168.6,0,200,0c74,0,138.6,40.2,173.2,99.9L373,100H206.2 c-10.4,0-18.8,8.4-18.8,18.8s8.4,18.7,18.8,18.7h90.7l0,0c-4.1,5.2-7.8,10.8-10.9,16.7v0h-79.8c-10.4,0-18.8,8.4-18.8,18.8 c0,10.4,8.4,18.7,18.8,18.7h69h0c-0.2,2.7-0.3,5.5-0.3,8.3c0,2.8,0.1,5.6,0.4,8.4h-69c-10.4,0-18.8,8.4-18.8,18.7 c0,10.4,8.4,18.8,18.8,18.8h79.9v0c3.1,5.9,6.7,11.5,10.9,16.7v0h-90.7c-10.4,0-18.8,8.4-18.8,18.8s8.4,18.7,18.8,18.7h166.9 l0.1,0.1C338.6,359.8,274,400,200,400C89.5,400,0,310.5,0,200C0,131.2,34.7,70.5,87.6,34.5L87.6,34.5L87.6,34.5L87.6,34.5z"></path> </g> </g> </svg>