<svg xmlns="http://www.w3.org/2000/svg" xmlns:xlink="http://www.w3.org/1999/xlink" id="Layer_1" x="0px" y="0px" width="400px" height="400px" viewBox="0 0 400 400" style="enable-background:new 0 0 400 400;" xml:space="preserve"> <style type="text/css"> .st0{fill:#E95420;} </style> <g> <g> <path class="st0" d="M200,50c-82.7,0-150,67.3-150,150s67.3,150,150,150s150-67.3,150-150S282.7,50,200,50 M200,400 C89.7,400,0,310.3,0,200C0,89.7,89.7,0,200,0s200,89.7,200,200C400,310.3,310.3,400,200,400 M305.3,165.9 c-0.8-2.6-3.1-4.4-5.9-4.3l-71.8,0.1l-22.1-68.3c-0.8-2.6-3.2-4.3-6-4.3c-2.7,0-5.1,1.8-5.9,4.3l-22.1,68.3l-71.8-0.1h0 c-2.7,0-5.1,1.8-5.9,4.3c-0.8,2.6,0.1,5.4,2.3,7l58.1,42.1l-22.3,68.3c-0.8,2.6,0.1,5.4,2.3,7c2.2,1.6,5.2,1.6,7.4,0l58-42.3 l58,42.3c1.1,0.8,2.4,1.2,3.7,1.2c0,0,0,0,0,0c3.5,0,6.2-2.8,6.2-6.2c0-0.9-0.2-1.8-0.6-2.6l-22-67.6l58.1-42.1 C305.2,171.4,306.2,168.5,305.3,165.9"></path> </g> </g> </svg>