<svg xmlns="http://www.w3.org/2000/svg" xmlns:xlink="http://www.w3.org/1999/xlink" id="Layer_1" x="0px" y="0px" width="400px" height="400px" viewBox="0 0 400 400" style="enable-background:new 0 0 400 400;" xml:space="preserve"> <style type="text/css"> .st0{fill:#E95420;} </style> <g> <path class="st0" d="M341.4,58.6C303.6,20.8,253.4,0,200,0C146.6,0,96.4,20.8,58.6,58.6C20.8,96.4,0,146.6,0,200 c0,53.4,20.8,103.6,58.6,141.4c37.8,37.8,88,58.6,141.4,58.6c53.4,0,103.6-20.8,141.4-58.6c37.8-37.8,58.6-88,58.6-141.4 S379.2,96.4,341.4,58.6z M320,340c0,2.8-2.2,5-5,5H85c-2.8,0-5-2.2-5-5V60c0-2.8,2.2-5,5-5h230c2.8,0,5,2.2,5,5L320,340L320,340z M300,122.5H100v-25h200V122.5z M300,172.5H100v-25h200V172.5z M300,222.5H100v-25h200V222.5z M230,272.5H100v-25h130V272.5z"></path> </g> </svg>