<svg xmlns="http://www.w3.org/2000/svg" xmlns:xlink="http://www.w3.org/1999/xlink" id="Layer_1" x="0px" y="0px" width="400px" height="400px" viewBox="0 0 400 400" style="enable-background:new 0 0 400 400;" xml:space="preserve"> <style type="text/css"> .st0{fill:#E95420;} </style> <g> <path class="st0" d="M341.5,58.6C303.7,20.8,253.5,0,200.1,0S96.4,20.8,58.6,58.6C20.8,96.4,0,146.6,0,200s20.8,103.6,58.6,141.4 c37.8,37.8,88,58.6,141.5,58.6c53.4,0,103.7-20.8,141.4-58.6C419.5,263.4,419.5,136.6,341.5,58.6L341.5,58.6z M37.5,213.1 c-6.9,0-12.5-5.6-12.5-12.5c0-6.9,5.6-12.5,12.5-12.5c6.9,0,12.5,5.6,12.5,12.5C50,207.5,44.4,213.1,37.5,213.1L37.5,213.1z M199.9,25.7c6.9,0,12.5,5.6,12.5,12.5c0,6.9-5.6,12.5-12.5,12.5c-6.9,0-12.5-5.6-12.5-12.5C187.4,31.3,193,25.7,199.9,25.7 L199.9,25.7z M76.2,76.9c4.9-4.9,12.8-4.9,17.7,0c4.9,4.9,4.9,12.8,0,17.7c-4.9,4.9-12.8,4.9-17.7,0C71.3,89.7,71.3,81.8,76.2,76.9 L76.2,76.9z M93.9,324.2c-4.9,4.9-12.8,4.9-17.7,0c-4.9-4.9-4.9-12.8,0-17.7c4.9-4.9,12.8-4.9,17.7,0 C98.8,311.4,98.8,319.3,93.9,324.2L93.9,324.2z M199.9,375.4c-6.9,0-12.5-5.6-12.5-12.5c0-6.9,5.6-12.5,12.5-12.5 c6.9,0,12.5,5.6,12.5,12.5C212.4,369.9,206.8,375.5,199.9,375.4L199.9,375.4z M244.4,245c-11.8,11.8-27.5,18.3-44.2,18.3 c-16.7,0-32.4-6.5-44.2-18.3c-11.8-11.8-18.3-27.5-18.3-44.2c0-8,1.5-15.8,4.4-23l-30.6-30.6c-9.8-9.8-9.8-25.6,0-35.4 c9.8-9.8,25.6-9.8,35.4,0l30.7,30.7c7.1-2.8,14.8-4.3,22.6-4.3c16.7,0,32.4,6.5,44.2,18.3c11.8,11.8,18.3,27.5,18.3,44.2 C262.7,217.5,256.2,233.2,244.4,245L244.4,245z M323.6,324.2c-4.9,4.9-12.8,4.9-17.7,0c-4.9-4.9-4.9-12.8,0-17.7 c4.9-4.9,12.8-4.9,17.7,0C328.5,311.4,328.5,319.3,323.6,324.2z M323.6,94.6c-4.9,4.9-12.8,4.9-17.7,0c-4.9-4.9-4.9-12.8,0-17.7 c4.9-4.9,12.8-4.9,17.7,0C328.5,81.8,328.5,89.7,323.6,94.6z M362.3,213.1c-6.9,0-12.5-5.6-12.5-12.5c0-6.9,5.6-12.5,12.5-12.5 c6.9,0,12.5,5.6,12.5,12.5C374.8,207.5,369.2,213.1,362.3,213.1L362.3,213.1z"></path> </g> </svg>