<svg xmlns="http://www.w3.org/2000/svg" xmlns:xlink="http://www.w3.org/1999/xlink" id="Layer_1" x="0px" y="0px" width="141.7px" height="141.7px" viewBox="0 0 141.7 141.7" style="enable-background:new 0 0 141.7 141.7;" xml:space="preserve"> <style type="text/css"> .st0{fill:#E95420;} </style> <path class="st0" d="M70.9,14.2c-31.3,0-56.7,25.4-56.7,56.7s25.4,56.7,56.7,56.7s56.7-25.4,56.7-56.7 C127.6,39.6,102.2,14.2,70.9,14.2z M87.9,41.3c6.9,0,12.4,5.6,12.4,12.4c0,6.9-5.6,12.4-12.4,12.4c-6.8,0-12.4-5.6-12.4-12.4 C75.5,46.8,81,41.3,87.9,41.3z M53.9,41.3c6.8,0,12.4,5.6,12.4,12.4c0,6.9-5.6,12.4-12.4,12.4c-6.8,0-12.4-5.6-12.4-12.4 C41.5,46.8,47,41.3,53.9,41.3z M112.7,100.5h-34H63.1h-34c-2,0-3.5-1.6-3.5-3.5c0-15.6,12.7-28.3,28.3-28.3c6.4,0,12.3,2.1,17,5.7 c4.7-3.6,10.6-5.7,17-5.7c15.6,0,28.3,12.7,28.3,28.3C116.2,98.9,114.6,100.5,112.7,100.5z"></path> </svg>