<svg xmlns="http://www.w3.org/2000/svg" xmlns:xlink="http://www.w3.org/1999/xlink" id="Layer_1" x="0px" y="0px" width="400px" height="400px" viewBox="0 0 400 400" style="enable-background:new 0 0 400 400;" xml:space="preserve"> <style type="text/css"> .st0{fill:#E95420;} </style> <path class="st0" d="M200,0C89.7,0,0,89.7,0,200v1.4C0.7,214.6,11.6,225,25,225h62.5v50h12.6c6.9,0,12.5,5.6,12.5,12.5 S107,300,100.1,300H87.5v51.5c0,8.9,4.8,17.2,12.5,21.6c30.3,17.6,64.9,26.8,100,26.8c110.3,0,200-89.7,200-200 C400,89.7,310.3,0,200,0z M199.1,344.2c-18.3,0-33.9-15.2-33.9-33.9c0-18.3,15.6-33.9,33.9-33.9c18.3,0,33.9,15.6,33.9,33.9 C233.1,329,217.5,344.2,199.1,344.2z M229.6,221.4v7.8c0,17.9-12.5,30.4-30.4,30.4s-30.4-12.5-30.4-30.4V198c0-21,14.8-23,30.8-25.7 c18.3-3.5,29.6-11.7,29.6-29.6c0-12.1-10.5-25.3-28.4-25.3c-34.7,0-29.6,35.1-60.8,35.1c-15.6,0-28-13.6-28-29.2 c0-44,50.3-69,88.9-69c51.4,0,96.2,32,96.2,86.5C297,190.6,268.5,213.6,229.6,221.4L229.6,221.4z"></path> </svg>