<svg xmlns="http://www.w3.org/2000/svg" xmlns:xlink="http://www.w3.org/1999/xlink" id="Layer_1" style="enable-background:new -226 350.2 141.7 141.7" xml:space="preserve" height="141.7px" viewBox="-226 350.2 141.7 141.7" width="141.7px" y="0px" x="0px"> <style type="text/css"> .st0{fill:#E95420;} </style> <path class="st0" d="m-156.1 365.3c-31.3 0-56.7 25.4-56.7 56.7s25.4 56.7 56.7 56.7 56.7-25.4 56.7-56.7c0-31.2-25.5-56.7-56.7-56.7zm-0.1 7c2 0 3.5 1.6 3.5 3.5v14.3c0 2-1.6 3.5-3.5 3.5-2 0-3.5-1.6-3.5-3.5v-14.3c0-1.9 1.6-3.5 3.5-3.5zm-46.1 53.3c-2 0-3.5-1.6-3.5-3.5s1.6-3.5 3.5-3.5h14.3c2 0 3.5 1.6 3.5 3.5s-1.6 3.5-3.5 3.5h-14.3zm26.1 21.5l-10.1 10.1c-0.7 0.7-1.6 1-2.5 1s-1.8-0.3-2.5-1c-1.4-1.4-1.4-3.6 0-5l10.1-10.1c1.4-1.4 3.6-1.4 5 0s1.4 3.6 0 5zm0-45.1c-0.7 0.7-1.6 1-2.5 1s-1.8-0.3-2.5-1l-10.1-10.1c-1.4-1.4-1.4-3.6 0-5s3.6-1.4 5 0l10.1 10.1c1.4 1.4 1.4 3.6 0 5zm23.6 66.2c0 2-1.6 3.5-3.5 3.5-2 0-3.5-1.6-3.5-3.5v-14.3c0-2 1.6-3.5 3.5-3.5 2 0 3.5 1.6 3.5 3.5v14.3zm10.7-28.5c0 2-1.6 3.5-3.5 3.5h-17.7c-2 0-3.5-1.6-3.5-3.5v-31.9c0-2 1.6-3.5 3.5-3.5h17.7c2 0 3.5 1.6 3.5 3.5v31.9zm5.8-42.7l10.1-10.1c1.4-1.4 3.6-1.4 5 0s1.4 3.6 0 5l-10.1 10.1c-0.7 0.7-1.6 1-2.5 1s-1.8-0.3-2.5-1c-1.4-1.4-1.4-3.6 0-5zm15.1 60.2c-0.7 0.7-1.6 1-2.5 1s-1.8-0.3-2.5-1l-10.1-10.1c-1.4-1.4-1.4-3.6 0-5s3.6-1.4 5 0l10.1 10.1c1.4 1.4 1.4 3.6 0 5zm11-31.6h-14.3c-2 0-3.5-1.6-3.5-3.5s1.6-3.5 3.5-3.5h14.3c2 0 3.5 1.6 3.5 3.5s-1.5 3.5-3.5 3.5zm-35.6-14c0 2-1.6 3.5-3.5 3.5-2 0-3.5-1.6-3.5-3.5 0-2 1.6-3.5 3.5-3.5s3.5 1.5 3.5 3.5z"></path> </svg>