<svg xmlns="http://www.w3.org/2000/svg" xmlns:xlink="http://www.w3.org/1999/xlink" id="Layer_1" x="0px" y="0px" width="400px" height="400px" viewBox="0 0 400 400" style="enable-background:new 0 0 400 400;" xml:space="preserve"> <style type="text/css"> .st0{fill:#E95420;} </style> <g> <path class="st0" d="M247.6,114.2c0,5.3-4.3,9.5-9.5,9.5c-5.3,0-9.5-4.3-9.5-9.5c0-5.3,4.3-9.5,9.5-9.5 C243.3,104.7,247.6,108.9,247.6,114.2L247.6,114.2z M400,180.9v33.4c0,10.5-8.5,19.1-19.1,19.1c-10.5,0-19.1-8.5-19.1-19.1 c0-6.3-4-11.6-9.7-13.5c-3.4,51.1-31.8,97.6-75.9,123.1c2.9,0,5.7,0.7,8.1,1.9c6.5,3,11,9.6,11,17.3c0,9.9-7.5,18-17.2,19h0 c-0.5,0-1,0.1-1.5,0.1h-0.1c-0.1,0-0.1,0-0.2,0H123.7c-10.5-0.1-19-8.6-19-19.1c0-10.5,8.6-19,19.1-19h0.1c0,0,0-0.1-0.1-0.1 c-44.1-25.5-72.5-72-75.9-123.1c-5.7,1.9-9.9,7.3-9.9,13.6c0,10.5-8.5,19.1-19.1,19.1C8.5,233.3,0,224.8,0,214.3v-33.4 c0-5.1,2-9.9,5.6-13.5c3.6-3.6,8.4-5.6,13.5-5.6h0l31.3,0C63.7,91.4,125.8,38,200.1,38s136.4,53.4,149.8,123.9l31,0h0 c5.1,0,9.9,2,13.5,5.6C398,171,400,175.9,400,180.9L400,180.9z M209.6,180.7c0-5.3-4.3-9.5-9.5-9.5c-5.3,0-9.5,4.3-9.5,9.5v28.6 c0,5.2,4.3,9.5,9.5,9.5c5.2,0,9.5-4.3,9.5-9.5L209.6,180.7L209.6,180.7z M295.3,114.1c0-30.3-25.6-54.8-57.2-54.8 c-14.6,0-28,5.3-38.1,13.9c-10.1-8.7-23.5-13.9-38.1-13.9c-31.6,0-57.2,24.5-57.2,54.8c0,30.3,25.6,54.8,57.2,54.8 c14.6,0,28-5.3,38.1-13.9c10.1,8.7,23.4,13.9,38.1,13.9C269.7,168.9,295.3,144.4,295.3,114.1L295.3,114.1z M161.9,104.7 c-5.3,0-9.5,4.3-9.5,9.5c0,5.3,4.3,9.5,9.5,9.5c5.3,0,9.5-4.3,9.5-9.5C171.4,108.9,167.2,104.7,161.9,104.7z"></path> </g> </svg>