<svg xmlns="http://www.w3.org/2000/svg" xmlns:xlink="http://www.w3.org/1999/xlink" id="Layer_1" x="0px" y="0px" width="400px" height="400px" viewBox="0 0 400 400" style="enable-background:new 0 0 400 400;" xml:space="preserve"> <style type="text/css"> .st0{fill:#E95420;} </style> <g> <path class="st0" d="M200,400C89.7,400,0,310.3,0,200C0,89.7,89.7,0,200,0c110.3,0,200,89.7,200,200C400,310.3,310.3,400,200,400z M200,50c-82.7,0-150,67.3-150,150s67.3,150,150,150c82.7,0,150-67.3,150-150S282.7,50,200,50z M274.7,175h-49.8v-50 c0-13.8-11.2-25-25-25s-25,11.2-25,25v50h-50.2c-13.8,0-25,11.2-25,25c0,13.8,11.2,25,25,25h50.2v50c0,13.8,11.2,25,25,25 c13.8,0,25-11.2,25-25v-50h49.8c13.8,0,25-11.2,25-25C299.7,186.2,288.5,175,274.7,175L274.7,175z"></path> </g> </svg>