<svg xmlns="http://www.w3.org/2000/svg" xmlns:xlink="http://www.w3.org/1999/xlink" id="Layer_1" x="0px" y="0px" width="400px" height="400px" viewBox="0 0 400 400" style="enable-background:new 0 0 400 400;" xml:space="preserve"> <style type="text/css"> .st0{fill:#E95420;} </style> <g> <path class="st0" d="M307.4,368.8c-31.8,20.3-68.7,31.2-107.2,31.2c-38.7,0-75.6-10.9-107.4-31.3c4.6-4.6,7.2-10.9,7.2-17.6v-51.6 H87.3c-6.9,0-12.5-5.6-12.5-12.5c0-6.9,5.6-12.5,12.5-12.5H100v-50.1h62.6c13.4,0,24.4-10.6,25-23.8c0-0.4,0-0.9,0-1.3 c0-71.1-37.2-133.6-93.1-169.2C125.9,10.5,162.2,0,200.1,0c37.9,0,74.1,10.5,105.4,30c-56,35.6-93.2,98.1-93.2,169.2 c0,0.4,0,0.8,0,1.3c0.6,13.3,11.6,23.8,25,23.8h62.6v50.1h12.7c6.9,0,12.5,5.6,12.5,12.5c0,6.9-5.6,12.5-12.5,12.5h-12.7v51.6 C300.1,357.9,302.7,364.2,307.4,368.8L307.4,368.8z M350.3,136.5c0-6.9-5.6-12.5-12.5-12.5c-6.9,0-12.5,5.6-12.5,12.5 s5.6,12.5,12.5,12.5C344.7,149,350.3,143.4,350.3,136.5L350.3,136.5z M62.2,124c-6.9,0-12.5,5.6-12.5,12.5S55.3,149,62.2,149 s12.5-5.6,12.5-12.5S69.2,124,62.2,124z"></path> </g> </svg>