<svg xmlns="http://www.w3.org/2000/svg" xmlns:xlink="http://www.w3.org/1999/xlink" id="Layer_1" x="0px" y="0px" width="400px" height="400px" viewBox="0 0 400 400" style="enable-background:new 0 0 400 400;" xml:space="preserve"> <style type="text/css"> .st0{fill:#E95420;} </style> <g> <path class="st0" d="M363.8,164.8c8.4-8.4,19.1-13.2,30-14.3c-9.2-36.1-28.3-68.2-54.2-93.5c-6.5,8.8-15.9,15.6-27.3,18.7 c-26.7,7.1-54.1-8.7-61.2-35.3c-3.1-11.4-1.9-22.9,2.5-32.9C236.5,2.6,218.6,0,200,0c-18.8,0-37,2.7-54.3,7.6 c4.3,10,5.4,21.4,2.4,32.7c-7.1,26.7-34.6,42.5-61.2,35.3c-11.2-3-20.5-9.6-26.9-18.2c-25.6,25.2-44.6,57.2-53.7,93.1 c10.7,1.3,21,6,29.2,14.2c19.5,19.5,19.5,51.2,0,70.7c-8.2,8.2-18.5,12.9-29.1,14.2c9.2,35.9,28.1,67.8,53.8,93 c6.5-8.5,15.7-15.1,26.8-18c26.7-7.2,54.1,8.7,61.2,35.3c3,11.2,1.9,22.6-2.3,32.5c17.3,4.9,35.4,7.5,54.2,7.5 c18.5,0,36.4-2.6,53.5-7.3c-4.3-10-5.4-21.4-2.4-32.7c7.1-26.7,34.6-42.5,61.2-35.4c11.4,3,20.7,9.8,27.2,18.5 c25.9-25.2,45-57.3,54.3-93.4c-11-1.2-21.6-5.9-30-14.3C344.2,215.9,344.2,184.3,363.8,164.8L363.8,164.8z M235.4,235.4 c-19.5,19.5-51.2,19.5-70.7,0c-19.5-19.5-19.5-51.2,0-70.7c19.5-19.5,51.2-19.5,70.7,0C254.9,184.2,254.9,215.8,235.4,235.4 L235.4,235.4z"></path> </g> </svg>