<svg xmlns="http://www.w3.org/2000/svg" xmlns:xlink="http://www.w3.org/1999/xlink" id="Layer_1" x="0px" y="0px" width="141.7px" height="141.7px" viewBox="0 0 141.7 141.7" style="enable-background:new 0 0 141.7 141.7;" xml:space="preserve"> <style type="text/css"> .st0{fill:#E95420;} </style> <path class="st0" d="M70.8,14.2c-23.1,0-42.9,13.9-51.8,33.7h24.9c-1,1.1-1.9,2.3-2.7,3.5H17.6c-0.8,2.3-1.5,4.7-2.1,7.1h22.1 c-0.4,1.2-0.8,2.3-1.1,3.5H14.8c-0.4,2.3-0.6,4.7-0.7,7.1h21.3c0,0.6,0,1.2,0,1.8c0,0.6,0,1.2,0,1.8H14.2c0.1,2.4,0.3,4.8,0.7,7.1 h21.7c0.3,1.2,0.7,2.4,1.1,3.5H15.5c0.5,2.4,1.2,4.8,2.1,7.1h23.7c0.8,1.2,1.7,2.4,2.7,3.5H19.1c8.8,19.8,28.7,33.7,51.8,33.7 c31.3,0,56.7-25.4,56.7-56.7C127.5,39.6,102.1,14.2,70.8,14.2z M65.5,46.1c0-2.9,2.4-5.3,5.3-5.3c2.9,0,5.3,2.4,5.3,5.3V71 c0,2.9-2.4,5.3-5.3,5.3s-5.3-2.4-5.3-5.3V46.1z M89.7,89.7c-5,5-11.7,7.8-18.8,7.8c0,0,0,0,0,0c-7.1,0-13.8-2.8-18.8-7.8 c-10-10-10.4-26-1-36.5c2-2.2,5.3-2.4,7.5-0.4c2.2,2,2.4,5.3,0.4,7.5c-5.6,6.3-5.4,15.9,0.6,21.9c3,3,7,4.7,11.3,4.7 c4.3,0,8.3-1.7,11.3-4.7c6-6,6.2-15.6,0.7-21.8c-1.9-2.2-1.7-5.6,0.4-7.5c2.2-2,5.6-1.8,7.5,0.4C100.1,63.8,99.6,79.8,89.7,89.7z"></path> </svg>