<svg xmlns="http://www.w3.org/2000/svg" xmlns:xlink="http://www.w3.org/1999/xlink" id="Layer_1" x="0px" y="0px" width="400px" height="400px" viewBox="0 0 400 400" style="enable-background:new 0 0 400 400;" xml:space="preserve"> <style type="text/css"> .st0{fill:#E95420;} </style> <g> <path class="st0" d="M200,0C89.7,0,0,89.7,0,200s89.7,200,200,200s200-89.7,200-200S310.3,0,200,0z M347.9,175.2H224.7v-28.1 c32.9-7.4,60.4-29.3,75.5-58.6C324.9,110.7,342.2,141,347.9,175.2L347.9,175.2z M174.7,94.5c-14.5-6.5-26.1-18.3-32.3-32.9 c10.2-4.3,21.1-7.4,32.3-9.3V94.5L174.7,94.5z M224.7,52.1c11.5,1.9,22.5,5.1,32.9,9.5c-6.3,14.9-18.1,26.8-32.9,33.2L224.7,52.1 L224.7,52.1z M99.8,88.5c14.9,29.1,42.2,50.9,74.9,58.5v28.2H52.1C57.8,141,75.1,110.7,99.8,88.5L99.8,88.5z M52.2,225.2h122.5 v27.7c-32.7,7.6-60,29.4-74.9,58.6C75.2,289.4,57.9,259.2,52.2,225.2L52.2,225.2z M174.7,347.8c-11.3-1.9-22.1-5.1-32.4-9.4 c6.2-14.7,17.8-26.6,32.4-33.1V347.8z M224.7,305.1c14.8,6.4,26.7,18.4,33,33.3c-10.4,4.4-21.5,7.6-33,9.5V305.1L224.7,305.1z M300.2,311.5c-15-29.4-42.5-51.3-75.5-58.7v-27.6h123.1C342.1,259.2,324.8,289.4,300.2,311.5L300.2,311.5z"></path> </g> </svg>