<svg xmlns="http://www.w3.org/2000/svg" xmlns:xlink="http://www.w3.org/1999/xlink" id="Layer_1" x="0px" y="0px" width="141.7px" height="141.7px" viewBox="0 0 141.7 141.7" style="enable-background:new 0 0 141.7 141.7;" xml:space="preserve"> <style type="text/css"> .st0{fill:#E95420;} </style> <path class="st0" d="M109.8,112V35.4H95.7v7.1h3.5v7.1H85v-7.1h3.6v-7.1H74.4v7.1h3.5v7.1H63.8v-7.1h3.6v-7.1H53.2v7.1h3.5v7.1H42.5 v-7.1h3.6v-7.1H31.9V112C21,101.7,14.2,87,14.2,70.9c0-31.3,25.4-56.7,56.7-56.7c31.3,0,56.7,25.4,56.7,56.7 C127.6,87,120.7,101.7,109.8,112z M70.9,102.8c9.8,0,17.7-7.9,17.7-17.7h-7.1c0,5.9-4.8,10.6-10.6,10.6s-10.6-4.8-10.6-10.6h-7.1 C53.2,94.8,61.1,102.8,70.9,102.8L70.9,102.8z"></path> </svg>