<svg xmlns="http://www.w3.org/2000/svg" xmlns:xlink="http://www.w3.org/1999/xlink" id="Layer_1" x="0px" y="0px" width="141.7px" height="141.7px" viewBox="0 0 141.7 141.7" style="enable-background:new 0 0 141.7 141.7;" xml:space="preserve"> <style type="text/css"> .st0{fill:#E95420;} </style> <g> <path class="st0" d="M70.9,14.2c-31.3,0-56.7,25.4-56.7,56.7s25.4,56.7,56.7,56.7s56.7-25.4,56.7-56.7S102.2,14.2,70.9,14.2z M70.9,60.2c1.7,0,3.3,0.2,4.8,0.7V33.7c0-1.7,0.9-3.2,2.3-4.1c1.4-0.9,3.2-1,4.7-0.2l14.5,7.1c2.4,1.2,3.4,4,2.2,6.4 c-1.2,2.4-4,3.4-6.4,2.2l-7.6-3.7v30.5c0,0.1,0,0.2,0,0.3c0,6.7-6.3,12-14.4,12c-8.1,0-14.4-5.3-14.4-12 C56.5,65.5,62.8,60.2,70.9,60.2z M56.5,89c3.8,3.9,8.9,6.1,14.4,6.1c5.5,0.1,10.6-2,14.5-5.8l4.1,4.2c-5,4.9-11.5,7.5-18.4,7.5 c-0.1,0-0.2,0-0.3,0c-7-0.1-13.6-2.9-18.5-7.9L56.5,89z M71.2,115.6c-0.1,0-0.3,0-0.4,0c-10.9-0.1-21.2-4.5-28.8-12.3l4.2-4.1 c6.6,6.7,15.3,10.4,24.7,10.5c9.4,0.1,18.2-3.5,24.9-10l4.1,4.2C92.1,111.5,82,115.6,71.2,115.6z"></path> </g> </svg>