<svg xmlns="http://www.w3.org/2000/svg" xmlns:xlink="http://www.w3.org/1999/xlink" id="Layer_1" x="0px" y="0px" width="400px" height="400px" viewBox="0 0 400 400" style="enable-background:new 0 0 400 400;" xml:space="preserve"> <style type="text/css"> .st0{fill:#E95420;} </style> <g> <path class="st0" d="M200,0C89.5,0,0,89.5,0,200s89.5,200,200,200c110.5,0,200-89.5,200-200S310.5,0,200,0z M201.4,315.7 L201.4,315.7C201.4,315.7,201.4,315.7,201.4,315.7C201.4,315.7,201.4,315.7,201.4,315.7L201.4,315.7c-41.2-41.1-107.9-41.1-149,0 V98.5c41.2-41.2,107.9-41.2,149,0c7.5-7.5,15.9-13.6,24.8-18.4v148.8c0,10.3,8.3,18.6,18.6,18.6s18.6-8.3,18.6-18.6V68.4 c31-3.7,63.2,6.4,87,30.1l0,217.3C309.3,274.6,242.6,274.6,201.4,315.7L201.4,315.7z"></path> </g> </svg>