<svg xmlns="http://www.w3.org/2000/svg" xmlns:xlink="http://www.w3.org/1999/xlink" id="Layer_1" x="0px" y="0px" width="400px" height="400px" viewBox="0 0 400 400" style="enable-background:new 0 0 400 400;" xml:space="preserve"> <style type="text/css"> .st0{fill:#E95420;} </style> <g> <path class="st0" d="M100,287.4h12.5v12.5H100V287.4z M149.8,287.4h-12.5v12.5h12.5V287.4z M400,200C400,89.7,310.3,0,200,0 c-21.7,0-42.5,3.5-62.1,9.9v152.2h24.5c6.9,0,12.5,5.6,12.5,12.5v87.5h-12.5v75h-75v-75H74.9v-87.5c0-6.9,5.6-12.5,12.5-12.5h25.5 V20C46.1,52.4,0,120.9,0,200c0,110.3,89.7,200,200,200c17.4,0,34.2-2.2,50.3-6.4v-98c-7.5-4.3-12.5-12.4-12.5-21.6v-54.4 c-22.3-9.6-38-31.7-38-57.5c0-34.5,28-62.5,62.5-62.5c34.5,0,62.5,28,62.5,62.5c0,25.4-15.2,47.3-37,57V274c0,9.2-5,17.3-12.5,21.6 v89.6C348.4,355.5,400,283.7,400,200L400,200z"></path> </g> </svg>