<svg xmlns="http://www.w3.org/2000/svg" xmlns:xlink="http://www.w3.org/1999/xlink" id="Layer_1" x="0px" y="0px" width="141.7px" height="141.7px" viewBox="0 0 141.7 141.7" style="enable-background:new 0 0 141.7 141.7;" xml:space="preserve"> <style type="text/css"> .st0{fill:#E95420;} </style> <path class="st0" d="M70.9,14.2c-31.3,0-56.7,25.4-56.7,56.7c0,31.3,25.4,56.7,56.7,56.7c31.3,0,56.7-25.4,56.7-56.7 S102.1,14.2,70.9,14.2z M94.5,85.1H47.3c-7.8,0-14.2-6.3-14.2-14.2c0-7.5,5.9-13.7,13.3-14.1C43.1,50.1,45.5,42,52,38.2 c6.5-3.8,14.8-1.8,18.9,4.4c4.1-6.2,12.4-8.2,18.9-4.4c6.5,3.8,8.9,11.9,5.6,18.6c7.4,0.5,13.3,6.6,13.3,14.1 C108.6,78.7,102.3,85.1,94.5,85.1z M52.1,77.7c-3.9,0-7.1-3.2-7.1-7.1c0-3.8,2.9-6.8,6.6-7.1c-1.7-3.3-0.5-7.4,2.8-9.3 c3.3-1.9,7.4-0.9,9.4,2.2c2-3.1,6.2-4.1,9.4-2.2c3.3,1.9,4.5,6,2.8,9.3c3.7,0.2,6.6,3.3,6.6,7.1c0,3.9-3.2,7.1-7.1,7.1H52.1z"></path> </svg>