<svg xmlns="http://www.w3.org/2000/svg" xmlns:xlink="http://www.w3.org/1999/xlink" id="Layer_1" x="0px" y="0px" width="400px" height="400px" viewBox="0 0 400 400" style="enable-background:new 0 0 400 400;" xml:space="preserve"> <style type="text/css"> .st0{fill:#E95420;} </style> <g> <path class="st0" d="M385.7,151.6c-13-12.9-30.2-20-48.5-20c-37.9,0-68.8,30.8-68.8,68.7c0,10.4,8.4,18.8,18.8,18.8 c10.4,0,18.8-8.4,18.8-18.8c0-17.2,14-31.2,31.2-31.2c8.3,0,16.1,3.2,22,9.1c7.4,7.3,19.2,7.3,26.5-0.1 C393,170.7,393,158.9,385.7,151.6L385.7,151.6z M287.2,212.8c-6.9,0-12.5-5.6-12.5-12.5c0-6.9,5.6-12.5,12.5-12.5 s12.5,5.6,12.5,12.5C299.7,207.2,294.1,212.8,287.2,212.8L287.2,212.8z M373.1,300.2C338.5,359.9,273.9,400,200,400 C89.5,400,0,310.5,0,200C0,89.5,89.5,0,200,0c74,0,138.7,40.2,173.3,100l0,0l-204.8,0c-10.4,0-18.7,8.4-18.7,18.8 c0,10.4,8.4,18.7,18.7,18.7h90.7c-4.1,5.2-7.8,10.8-10.9,16.7v0h-79.8c-10.4,0-18.7,8.4-18.7,18.7c0,10.4,8.4,18.8,18.7,18.8h69 c-0.2,2.7-0.3,5.5-0.3,8.3c0,2.8,0.1,5.6,0.4,8.4v0h-69c-10.4,0-18.7,8.4-18.7,18.8s8.4,18.8,18.7,18.8h79.8v0 c3.1,5.9,6.7,11.5,10.9,16.7h-90.7c-10.4,0-18.7,8.4-18.7,18.8c0,10.4,8.4,18.7,18.7,18.7h204.4L373.1,300.2L373.1,300.2z"></path> </g> </svg>