<svg xmlns="http://www.w3.org/2000/svg" xmlns:xlink="http://www.w3.org/1999/xlink" id="Layer_1" x="0px" y="0px" width="400px" height="400px" viewBox="0 0 400 400" style="enable-background:new 0 0 400 400;" xml:space="preserve"> <style type="text/css"> .st0{fill:#E95420;} </style> <g> <path class="st0" d="M73.7,168.4c0-69.7,56.7-126.3,126.3-126.3c69.7,0,126.3,56.7,126.3,126.3h42.1C368.4,75.6,292.9,0,200,0 C107.1,0,31.6,75.6,31.6,168.4v63.7h0C31.9,324.8,107.3,400,200,400c92.9,0,168.4-75.6,168.4-168.4v-21.1H73.7V168.4L73.7,168.4z M200,242.1c17.4,0,31.6,14.1,31.6,31.6c0,13.7-8.8,25.4-21,29.7v54.4c0,5.8-4.7,10.5-10.5,10.5s-10.5-4.7-10.5-10.5v-54.4 c-12.3-4.3-21.1-16-21.1-29.8C168.4,256.3,182.6,242.1,200,242.1L200,242.1z"></path> </g> </svg>