<svg xmlns="http://www.w3.org/2000/svg" xmlns:xlink="http://www.w3.org/1999/xlink" id="Layer_1" x="0px" y="0px" width="400px" height="400px" viewBox="0 0 400 400" style="enable-background:new 0 0 400 400;" xml:space="preserve"> <style type="text/css"> .st0{fill:#E95420;} </style> <g> <path class="st0" d="M200,0C89.7,0,0,89.7,0,200c0,110.3,89.7,200,200,200c110.3,0,200-89.7,200-200C400,89.7,310.3,0,200,0L200,0z M270,240.9l-61.2,61.2c-4.9,4.9-12.8,4.9-17.7,0l-60.6-60.6c-2.6-2.3-4.3-5.7-4.3-9.4c0-6.9,5.6-12.5,12.5-12.5H175V119.2 c0-13.8,11.2-25,25-25c13.8,0,25,11.2,25,25v100.4h36.2c5,0,9.6,3,11.5,7.7C274.7,232,273.6,237.4,270,240.9L270,240.9z"></path> </g> </svg>