<svg xmlns="http://www.w3.org/2000/svg" xmlns:xlink="http://www.w3.org/1999/xlink" id="Layer_1" x="0px" y="0px" width="400px" height="400px" viewBox="0 0 400 400" style="enable-background:new 0 0 400 400;" xml:space="preserve"> <style type="text/css"> .st0{fill:#E95420;} </style> <g> <path class="st0" d="M200,0C89.5,0,0,89.5,0,200c0,110.5,89.5,200,200,200s200-89.5,200-200C400,89.5,310.5,0,200,0z M290,322.7 c0,9-7.3,16.4-16.4,16.4H126.4c-9,0-16.4-7.3-16.4-16.4V77.3c0-9,7.3-16.4,16.4-16.4h147.3c9,0,16.4,7.3,16.4,16.4L290,322.7 L290,322.7z M274.1,85.5v98.2c0,4.5-3.7,8.2-8.2,8.2H135.1c-4.5,0-8.2-3.7-8.2-8.2V85.5c0-4.5,3.7-8.2,8.2-8.2H266 C270.5,77.3,274.1,81,274.1,85.5L274.1,85.5z M200.2,216.6c-27.1,0-49.1,22-49.1,49.1s22,49.1,49.1,49.1c27.1,0,49.1-22,49.1-49.1 S227.2,216.6,200.2,216.6z M200.2,282.1c-9,0-16.4-7.3-16.4-16.4c0-9,7.3-16.4,16.4-16.4s16.4,7.3,16.4,16.4 C216.5,274.8,209.2,282.1,200.2,282.1L200.2,282.1z"></path> </g> </svg>