<svg xmlns="http://www.w3.org/2000/svg" xmlns:xlink="http://www.w3.org/1999/xlink" id="Layer_1" x="0px" y="0px" width="141.7px" height="141.7px" viewBox="0 0 141.7 141.7" style="enable-background:new 0 0 141.7 141.7;" xml:space="preserve"> <style type="text/css"> .st0{fill:#E95420;} </style> <path class="st0" d="M70.9,14.2c-31.3,0-56.7,25.4-56.7,56.7s25.4,56.7,56.7,56.7s56.7-25.4,56.7-56.7 C127.6,39.6,102.2,14.2,70.9,14.2z M70.9,41.3c6.9,0,12.4,5.6,12.4,12.4c0,6.9-5.6,12.4-12.4,12.4c-6.8,0-12.4-5.6-12.4-12.4 C58.5,46.8,64,41.3,70.9,41.3z M95.7,100.5H46.1c-2,0-3.5-1.6-3.5-3.5c0-15.6,12.7-28.3,28.3-28.3s28.3,12.7,28.3,28.3 C99.2,98.9,97.6,100.5,95.7,100.5z M80.8,87c0,5.5-4.5,9.9-9.9,9.9c-5.5,0-9.9-4.4-9.9-9.9c0-5.1,3.9-9.4,8.9-9.9v-2.9 c0-0.4,0.2-0.8,0.6-0.9c0.4-0.2,0.8-0.1,1.1,0.2l4.9,4.9c0.4,0.4,0.4,1,0,1.4l-4.9,4.9c-0.2,0.2-0.4,0.3-0.7,0.3 c-0.1,0-0.3,0-0.4-0.1c-0.4-0.2-0.6-0.5-0.6-0.9v-2.8c-2.8,0.5-4.9,2.9-4.9,5.9c0,3.3,2.7,6,6,6s6-2.7,6-6c0-1.1,0.9-2,2-2 S80.8,85.9,80.8,87z"></path> </svg>