<svg xmlns="http://www.w3.org/2000/svg" xmlns:xlink="http://www.w3.org/1999/xlink" id="Layer_1" x="0px" y="0px" width="141.7px" height="141.7px" viewBox="0 0 141.7 141.7" style="enable-background:new 0 0 141.7 141.7;" xml:space="preserve"> <style type="text/css"> .st0{fill:#E95420;} </style> <path class="st0" d="M70.9,14.2c-31.3,0-56.7,25.4-56.7,56.7c0,31.3,25.4,56.7,56.7,56.7s56.7-25.4,56.7-56.7 C127.6,39.6,102.1,14.2,70.9,14.2z M109.8,95.6c0,2-1.6,3.5-3.5,3.5H35.4c-2,0-3.5-1.6-3.5-3.5V46v-7.1c0-2,1.6-3.5,3.5-3.5h24.8 c2,0,3.5,1.6,3.5,3.5v3.5h42.5c2,0,3.5,1.6,3.5,3.5L109.8,95.6L109.8,95.6z M88.5,70.9c0,9.8-7.9,17.7-17.7,17.7 C61,88.6,53,80.6,53,70.9c0-9.2,7-16.7,15.9-17.6V48c0-0.7,0.4-1.4,1.1-1.6c0.7-0.3,1.4-0.1,1.9,0.4l8.7,8.7 c0.3,0.3,0.5,0.8,0.5,1.3c0,0.5-0.2,0.9-0.5,1.3L72,66.6c-0.3,0.3-0.8,0.5-1.3,0.5c-0.2,0-0.5,0-0.7-0.1c-0.7-0.3-1.1-0.9-1.1-1.6 v-5c-5,0.9-8.8,5.2-8.8,10.5c0,5.9,4.8,10.6,10.6,10.6s10.6-4.8,10.6-10.6c0-2,1.6-3.5,3.5-3.5S88.5,68.9,88.5,70.9z"></path> </svg>