<svg xmlns="http://www.w3.org/2000/svg" xmlns:xlink="http://www.w3.org/1999/xlink" id="Layer_1" x="0px" y="0px" width="400px" height="400px" viewBox="0 0 400 400" style="enable-background:new 0 0 400 400;" xml:space="preserve"> <style type="text/css"> .st0{fill:#E95420;} </style> <g> <path class="st0" d="M346.2,0h-32.5c-0.2,0-0.3,0-0.5,0H183.7C101.8,0,35.2,66.7,35.2,148.6c0,75.6,56.8,138.2,129.9,147.4V400 h37.1V295.9c73.1-9.1,129.9-71.7,130-147.3c0,0,0-0.1,0-0.1V51.5c0-0.1,0-0.3,0-0.4c0-7.7,6.2-13.9,13.9-13.9 c10.3,0,18.6-8.3,18.6-18.6C364.8,8.3,356.5,0,346.2,0L346.2,0z M219.9,184.7c-15.8,15.8-36.7,24.4-59.1,24.4h0 c-7.3,0-14.6-1-21.6-2.8c-6.4-1.7-11.4-6.7-13.2-13.2c-7.7-28.8,0.6-59.7,21.6-80.7C163.5,96.7,184.5,88,206.8,88 c7.3,0,14.6,0.9,21.6,2.8c6.4,1.7,11.4,6.7,13.2,13.2C249.2,132.8,240.9,163.7,219.9,184.7L219.9,184.7z M277.2,46.3 c-5.1,0-9.3-4.2-9.3-9.3c0-5.1,4.2-9.3,9.3-9.3c5.1,0,9.3,4.2,9.3,9.3C286.4,42.2,282.3,46.3,277.2,46.3L277.2,46.3z"></path> </g> </svg>